if (_typeface_js && _typeface_js.loadFace) _typeface_js.loadFace({"glyphs":{"S":{"x_min":67.828125,"x_max":746.046875,"ha":815,"o":"m 678 881 l 746 881 l 746 746 l 610 746 l 610 813 l 542 813 l 542 881 l 271 881 l 271 813 l 203 813 l 203 678 l 271 678 l 271 610 l 610 610 l 610 542 l 678 542 l 678 474 l 746 474 l 746 203 l 678 203 l 678 135 l 610 135 l 610 67 l 203 67 l 203 135 l 135 135 l 135 203 l 67 203 l 67 339 l 203 339 l 203 271 l 271 271 l 271 203 l 542 203 l 542 271 l 610 271 l 610 406 l 542 406 l 542 474 l 203 474 l 203 542 l 135 542 l 135 610 l 67 610 l 67 881 l 135 881 l 135 949 l 203 949 l 203 1017 l 610 1017 l 610 949 l 678 949 l 678 881 "},"\u0000":{"x_min":0,"x_max":0,"ha":815},"¦":{"x_min":339.109375,"x_max":474.75,"ha":815,"o":"m 474 1152 l 474 678 l 339 678 l 339 1152 l 474 1152 m 474 542 l 474 67 l 339 67 l 339 542 l 474 542 "},"/":{"x_min":67.828125,"x_max":746.046875,"ha":815,"o":"m 610 1017 l 746 1017 l 746 746 l 678 746 l 678 678 l 610 678 l 610 610 l 542 610 l 542 542 l 474 542 l 474 474 l 406 474 l 406 406 l 339 406 l 339 339 l 271 339 l 271 271 l 203 271 l 203 67 l 67 67 l 67 339 l 135 339 l 135 406 l 203 406 l 203 474 l 271 474 l 271 542 l 339 542 l 339 610 l 406 610 l 406 678 l 474 678 l 474 746 l 542 746 l 542 813 l 610 813 l 610 1017 "},"y":{"x_min":67.828125,"x_max":746.046875,"ha":815,"o":"m 203 67 l 203 203 l 542 203 l 542 271 l 610 271 l 610 474 l 542 474 l 542 406 l 474 406 l 474 339 l 203 339 l 203 406 l 135 406 l 135 474 l 67 474 l 67 881 l 203 881 l 203 542 l 271 542 l 271 474 l 406 474 l 406 542 l 474 542 l 474 610 l 542 610 l 542 746 l 610 746 l 610 881 l 746 881 l 746 203 l 678 203 l 678 135 l 610 135 l 610 67 l 203 67 "},"Á":{"x_min":67.828125,"x_max":746.046875,"ha":815,"o":"m 203 67 l 67 67 l 67 610 l 135 610 l 135 678 l 203 678 l 203 746 l 271 746 l 271 813 l 339 813 l 339 881 l 474 881 l 474 813 l 542 813 l 542 746 l 610 746 l 610 678 l 678 678 l 678 610 l 746 610 l 746 67 l 610 67 l 610 271 l 203 271 l 203 67 m 610 406 l 610 542 l 542 542 l 542 610 l 474 610 l 474 677 l 406 677 l 406 678 l 339 678 l 339 610 l 271 610 l 271 542 l 203 542 l 203 406 l 610 406 m 406 1085 l 406 1152 l 610 1152 l 610 1085 l 542 1085 l 542 1017 l 406 1017 l 406 949 l 271 949 l 271 1017 l 339 1017 l 339 1085 l 406 1085 "},"g":{"x_min":67.828125,"x_max":746.046875,"ha":815,"o":"m 610 610 l 610 678 l 542 678 l 542 746 l 271 746 l 271 678 l 203 678 l 203 610 l 271 610 l 271 542 l 542 542 l 542 610 l 610 610 m 203 135 l 135 135 l 135 271 l 271 271 l 271 203 l 542 203 l 542 271 l 610 271 l 610 474 l 542 474 l 542 406 l 203 406 l 203 474 l 135 474 l 135 542 l 67 542 l 67 746 l 135 746 l 135 813 l 203 813 l 203 881 l 610 881 l 610 813 l 678 813 l 678 746 l 746 746 l 746 203 l 678 203 l 678 135 l 610 135 l 610 67 l 203 67 l 203 135 "},"²":{"x_min":203.46875,"x_max":542.578125,"ha":815,"o":"m 203 1017 l 203 1085 l 271 1085 l 271 1152 l 474 1152 l 474 1085 l 542 1085 l 542 949 l 474 949 l 474 881 l 339 881 l 339 746 l 542 746 l 542 678 l 203 678 l 203 881 l 271 881 l 271 949 l 406 949 l 406 1085 l 339 1085 l 339 1017 l 203 1017 "},"ë":{"x_min":67.828125,"x_max":746.046875,"ha":815,"o":"m 746 271 l 746 203 l 678 203 l 678 135 l 610 135 l 610 67 l 203 67 l 203 135 l 135 135 l 135 203 l 67 203 l 67 610 l 135 610 l 135 678 l 203 678 l 203 746 l 610 746 l 610 678 l 678 678 l 678 610 l 746 610 l 746 406 l 678 406 l 678 339 l 203 339 l 203 271 l 271 271 l 271 203 l 542 203 l 542 271 l 746 271 m 203 474 l 610 474 l 610 542 l 542 542 l 542 610 l 271 610 l 271 542 l 203 542 l 203 474 m 203 881 l 203 1017 l 339 1017 l 339 881 l 203 881 m 474 1017 l 610 1017 l 610 881 l 474 881 l 474 1017 "},"Î":{"x_min":203.46875,"x_max":610.40625,"ha":815,"o":"m 203 67 l 203 203 l 339 203 l 339 746 l 203 746 l 203 881 l 610 881 l 610 746 l 474 746 l 474 203 l 610 203 l 610 67 l 203 67 m 339 1085 l 339 1152 l 474 1152 l 474 1085 l 542 1085 l 542 1017 l 610 1017 l 610 949 l 474 949 l 474 1017 l 339 1017 l 339 949 l 203 949 l 203 1017 l 271 1017 l 271 1085 l 339 1085 "},"e":{"x_min":67.828125,"x_max":746.046875,"ha":815,"o":"m 203 610 l 203 542 l 610 542 l 610 610 l 542 610 l 542 678 l 271 678 l 271 610 l 203 610 m 746 271 l 746 203 l 678 203 l 678 135 l 610 135 l 610 67 l 203 67 l 203 135 l 135 135 l 135 203 l 67 203 l 67 678 l 135 678 l 135 746 l 203 746 l 203 813 l 610 813 l 610 746 l 678 746 l 678 678 l 746 678 l 746 474 l 678 474 l 678 406 l 203 406 l 203 271 l 271 271 l 271 203 l 542 203 l 542 271 l 746 271 "},"Ã":{"x_min":67.828125,"x_max":746.046875,"ha":815,"o":"m 542 1017 l 542 949 l 406 949 l 406 1017 l 271 1017 l 271 949 l 203 949 l 203 1085 l 271 1085 l 271 1152 l 406 1152 l 406 1085 l 542 1085 l 542 1152 l 610 1152 l 610 1017 l 542 1017 m 610 406 l 610 542 l 542 542 l 542 610 l 474 610 l 474 677 l 406 677 l 406 678 l 339 678 l 339 610 l 271 610 l 271 542 l 203 542 l 203 406 l 610 406 m 203 67 l 67 67 l 67 610 l 135 610 l 135 678 l 203 678 l 203 746 l 271 746 l 271 813 l 339 813 l 339 881 l 474 881 l 474 813 l 542 813 l 542 746 l 610 746 l 610 678 l 678 678 l 678 610 l 746 610 l 746 67 l 610 67 l 610 271 l 203 271 l 203 67 "},"J":{"x_min":67.828125,"x_max":746.046875,"ha":815,"o":"m 135 203 l 67 203 l 67 339 l 203 339 l 203 271 l 271 271 l 271 203 l 406 203 l 406 271 l 474 271 l 474 881 l 339 881 l 339 1017 l 746 1017 l 746 881 l 610 881 l 610 203 l 542 203 l 542 135 l 474 135 l 474 67 l 203 67 l 203 135 l 135 135 l 135 203 "},"»":{"x_min":67.828125,"x_max":746.046875,"ha":815,"o":"m 678 406 l 610 406 l 610 339 l 542 339 l 542 271 l 474 271 l 474 203 l 406 203 l 406 339 l 474 339 l 474 406 l 542 406 l 542 474 l 610 474 l 610 542 l 542 542 l 542 610 l 474 610 l 474 678 l 406 678 l 406 813 l 474 813 l 474 746 l 542 746 l 542 678 l 610 678 l 610 610 l 678 610 l 678 542 l 746 542 l 746 474 l 678 474 l 678 406 m 339 406 l 271 406 l 271 339 l 203 339 l 203 271 l 135 271 l 135 203 l 67 203 l 67 339 l 135 339 l 135 406 l 203 406 l 203 474 l 271 474 l 271 542 l 203 542 l 203 610 l 135 610 l 135 678 l 67 678 l 67 813 l 135 813 l 135 746 l 203 746 l 203 678 l 271 678 l 271 610 l 339 610 l 339 542 l 406 542 l 406 474 l 339 474 l 339 406 "},"©":{"x_min":67.828125,"x_max":746.046875,"ha":815,"o":"m 271 271 l 542 271 l 542 339 l 610 339 l 610 406 l 678 406 l 678 746 l 610 746 l 610 813 l 542 813 l 542 881 l 271 881 l 271 813 l 203 813 l 203 746 l 135 746 l 135 406 l 203 406 l 203 339 l 271 339 l 271 271 m 610 271 l 610 203 l 203 203 l 203 271 l 135 271 l 135 339 l 67 339 l 67 813 l 135 813 l 135 881 l 203 881 l 203 949 l 610 949 l 610 881 l 678 881 l 678 813 l 746 813 l 746 339 l 678 339 l 678 271 l 610 271 m 542 813 l 542 746 l 406 746 l 406 678 l 339 678 l 339 474 l 406 474 l 406 406 l 542 406 l 542 339 l 339 339 l 339 406 l 271 406 l 271 746 l 339 746 l 339 813 l 542 813 "},"ò":{"x_min":67.828125,"x_max":746.046875,"ha":815,"o":"m 406 1017 l 406 949 l 474 949 l 474 881 l 542 881 l 542 813 l 406 813 l 406 881 l 271 881 l 271 949 l 203 949 l 203 1017 l 406 1017 m 271 203 l 542 203 l 542 271 l 610 271 l 610 542 l 542 542 l 542 610 l 271 610 l 271 542 l 203 542 l 203 271 l 271 271 l 271 203 m 203 67 l 203 135 l 135 135 l 135 203 l 67 203 l 67 610 l 135 610 l 135 678 l 203 678 l 203 746 l 610 746 l 610 678 l 678 678 l 678 610 l 746 610 l 746 203 l 678 203 l 678 135 l 610 135 l 610 67 l 203 67 "},"^":{"x_min":67.828125,"x_max":746.046875,"ha":815,"o":"m 474 1017 l 474 949 l 542 949 l 542 881 l 610 881 l 610 813 l 678 813 l 678 746 l 746 746 l 746 678 l 542 678 l 542 746 l 474 746 l 474 813 l 339 813 l 339 746 l 271 746 l 271 678 l 67 678 l 67 746 l 135 746 l 135 813 l 203 813 l 203 881 l 271 881 l 271 949 l 339 949 l 339 1017 l 474 1017 "},"↑":{"x_min":67.828125,"x_max":746.046875,"ha":815,"o":"m 203 339 l 203 203 l 67 203 l 67 339 l 135 339 l 135 474 l 203 474 l 203 610 l 271 610 l 271 746 l 339 746 l 339 881 l 474 881 l 474 746 l 542 746 l 542 610 l 610 610 l 610 474 l 678 474 l 678 339 l 746 339 l 746 203 l 610 203 l 610 339 l 542 339 l 542 474 l 474 474 l 474 610 l 339 610 l 339 474 l 271 474 l 271 339 l 203 339 "},"«":{"x_min":67.828125,"x_max":746.046875,"ha":815,"o":"m 135 474 l 67 474 l 67 542 l 135 542 l 135 610 l 203 610 l 203 678 l 271 678 l 271 746 l 339 746 l 339 813 l 406 813 l 406 678 l 339 678 l 339 610 l 271 610 l 271 542 l 203 542 l 203 474 l 271 474 l 271 406 l 339 406 l 339 339 l 406 339 l 406 203 l 339 203 l 339 271 l 271 271 l 271 339 l 203 339 l 203 406 l 135 406 l 135 474 m 474 474 l 406 474 l 406 542 l 474 542 l 474 610 l 542 610 l 542 678 l 610 678 l 610 746 l 678 746 l 678 813 l 746 813 l 746 678 l 678 678 l 678 610 l 610 610 l 610 542 l 542 542 l 542 474 l 610 474 l 610 406 l 678 406 l 678 339 l 746 339 l 746 203 l 678 203 l 678 271 l 610 271 l 610 339 l 542 339 l 542 406 l 474 406 l 474 474 "},"D":{"x_min":67.828125,"x_max":746.046875,"ha":815,"o":"m 203 881 l 203 203 l 474 203 l 474 202 l 542 202 l 542 271 l 610 271 l 610 813 l 542 813 l 542 881 l 203 881 m 67 68 l 67 1018 l 609 1018 l 609 950 l 678 950 l 678 882 l 746 882 l 746 204 l 678 204 l 678 136 l 610 136 l 610 67 l 474 67 l 474 68 l 67 68 "},"ÿ":{"x_min":67.828125,"x_max":746.046875,"ha":815,"o":"m 203 881 l 203 1017 l 339 1017 l 339 881 l 203 881 m 474 1017 l 610 1017 l 610 881 l 474 881 l 474 1017 m 203 67 l 203 203 l 542 203 l 542 271 l 610 271 l 610 474 l 542 474 l 542 406 l 474 406 l 474 339 l 203 339 l 203 406 l 135 406 l 135 474 l 67 474 l 67 746 l 203 746 l 203 542 l 271 542 l 271 474 l 406 474 l 406 542 l 474 542 l 474 610 l 542 610 l 542 678 l 610 678 l 610 746 l 746 746 l 746 203 l 678 203 l 678 135 l 610 135 l 610 67 l 203 67 "},"í":{"x_min":203.46875,"x_max":610.40625,"ha":815,"o":"m 542 203 l 610 203 l 610 67 l 474 67 l 474 135 l 406 135 l 406 203 l 339 203 l 339 542 l 203 542 l 203 678 l 474 678 l 474 271 l 542 271 l 542 203 m 542 203 l 610 203 l 610 67 l 474 67 l 474 135 l 406 135 l 406 203 l 339 203 l 339 542 l 203 542 l 203 678 l 474 678 l 474 271 l 542 271 l 542 203 m 610 1017 l 610 949 l 542 949 l 542 881 l 406 881 l 406 813 l 271 813 l 271 881 l 339 881 l 339 949 l 406 949 l 406 1017 l 610 1017 "},"w":{"x_min":67.828125,"x_max":746.046875,"ha":815,"o":"m 67 813 l 203 813 l 203 271 l 271 271 l 271 203 l 339 203 l 339 542 l 474 542 l 474 203 l 542 203 l 542 271 l 610 271 l 610 813 l 746 813 l 746 203 l 678 203 l 678 135 l 610 135 l 610 67 l 474 67 l 474 135 l 339 135 l 339 67 l 203 67 l 203 135 l 135 135 l 135 203 l 67 203 l 67 813 "},"$":{"x_min":67.828125,"x_max":746.046875,"ha":815,"o":"m 474 949 l 610 949 l 610 881 l 678 881 l 678 813 l 746 813 l 746 678 l 610 678 l 610 746 l 542 746 l 542 813 l 474 813 l 474 610 l 610 610 l 610 542 l 678 542 l 678 474 l 746 474 l 746 271 l 678 271 l 678 203 l 610 203 l 610 135 l 474 135 l 474 65 l 339 65 l 339 135 l 203 135 l 203 203 l 135 203 l 135 271 l 67 271 l 67 406 l 203 406 l 203 339 l 271 339 l 271 271 l 339 271 l 339 474 l 203 474 l 203 542 l 135 542 l 135 610 l 67 610 l 67 813 l 135 813 l 135 881 l 203 881 l 203 949 l 339 949 l 339 1017 l 474 1017 l 474 949 m 474 271 l 542 271 l 542 339 l 610 339 l 610 406 l 542 406 l 542 474 l 474 474 l 474 271 m 339 813 l 271 813 l 271 746 l 203 746 l 203 678 l 271 678 l 271 610 l 339 610 l 339 813 "},"\\":{"x_min":67.828125,"x_max":746.046875,"ha":815,"o":"m 203 813 l 271 813 l 271 746 l 339 746 l 339 678 l 406 678 l 406 610 l 474 610 l 474 542 l 542 542 l 542 474 l 610 474 l 610 406 l 678 406 l 678 339 l 746 339 l 746 67 l 610 67 l 610 271 l 542 271 l 542 339 l 474 339 l 474 406 l 406 406 l 406 474 l 339 474 l 339 542 l 271 542 l 271 610 l 203 610 l 203 678 l 135 678 l 135 746 l 67 746 l 67 1017 l 203 1017 l 203 813 "},"Ì":{"x_min":203.46875,"x_max":610.40625,"ha":815,"o":"m 203 67 l 203 203 l 339 203 l 339 746 l 203 746 l 203 881 l 610 881 l 610 746 l 474 746 l 474 203 l 610 203 l 610 67 l 203 67 m 406 1152 l 406 1085 l 474 1085 l 474 1017 l 543 1017 l 543 949 l 407 949 l 407 1017 l 271 1017 l 271 1085 l 204 1085 l 204 1152 l 406 1152 "},"Ç":{"x_min":67.828125,"x_max":746.046875,"ha":815,"o":"m 678 881 l 746 881 l 746 746 l 610 746 l 610 813 l 542 813 l 542 881 l 271 881 l 271 813 l 203 813 l 203 474 l 271 474 l 271 406 l 542 406 l 542 474 l 610 474 l 610 542 l 746 542 l 746 406 l 678 406 l 678 339 l 610 339 l 610 271 l 542 271 l 542 203 l 474 203 l 474 135 l 406 135 l 406 67 l 203 67 l 203 135 l 271 135 l 271 203 l 339 203 l 339 271 l 203 271 l 203 339 l 135 339 l 135 406 l 67 406 l 67 881 l 135 881 l 135 949 l 203 949 l 203 1017 l 610 1017 l 610 949 l 678 949 l 678 881 "},"’":{"x_min":203.46875,"x_max":406.9375,"ha":815,"o":"m 203 610 l 203 678 l 271 678 l 271 610 l 203 610 m 271 813 l 203 813 l 203 1017 l 406 1017 l 406 746 l 339 746 l 339 678 l 271 678 l 271 813 "},"-":{"x_min":135.640625,"x_max":678.21875,"ha":815,"o":"m 678 610 l 678 474 l 135 474 l 135 610 l 678 610 "},"Q":{"x_min":67.828125,"x_max":746.046875,"ha":815,"o":"m 203 813 l 203 271 l 271 271 l 271 203 l 474 203 l 474 271 l 406 271 l 406 339 l 339 339 l 339 474 l 474 474 l 474 406 l 542 406 l 542 339 l 610 339 l 610 813 l 542 813 l 542 881 l 271 881 l 271 813 l 203 813 m 135 203 l 67 203 l 67 881 l 135 881 l 135 949 l 203 949 l 203 1017 l 610 1017 l 610 949 l 678 949 l 678 881 l 746 881 l 746 271 l 678 271 l 678 203 l 746 203 l 746 67 l 610 67 l 610 135 l 474 135 l 474 67 l 203 67 l 203 135 l 135 135 l 135 203 "},"M":{"x_min":67.828125,"x_max":747.40625,"ha":815,"o":"m 204 67 l 68 67 l 68 881 l 67 881 l 67 1017 l 203 1017 l 203 881 l 271 881 l 271 813 l 339 813 l 339 746 l 475 746 l 475 813 l 543 813 l 543 881 l 611 881 l 611 1016 l 747 1016 l 747 881 l 746 881 l 746 67 l 611 67 l 611 678 l 543 678 l 543 610 l 475 610 l 475 474 l 339 474 l 339 610 l 271 610 l 271 678 l 204 678 l 204 67 "},"C":{"x_min":67.828125,"x_max":746.046875,"ha":815,"o":"m 271 202 l 542 202 l 542 270 l 610 270 l 610 337 l 746 337 l 746 202 l 678 202 l 678 134 l 610 134 l 610 67 l 203 67 l 203 135 l 135 135 l 135 203 l 67 203 l 67 881 l 135 881 l 135 949 l 203 949 l 203 1017 l 610 1017 l 610 949 l 678 949 l 678 881 l 746 881 l 746 746 l 610 746 l 610 813 l 542 813 l 542 881 l 271 881 l 271 813 l 203 813 l 203 271 l 271 271 l 271 202 "},"!":{"x_min":271.296875,"x_max":406.9375,"ha":815,"o":"m 406 203 l 406 67 l 271 67 l 271 203 l 406 203 m 406 339 l 271 339 l 271 1017 l 406 1017 l 406 339 "},"ç":{"x_min":67.828125,"x_max":746.046875,"ha":815,"o":"m 339 271 l 203 271 l 203 339 l 135 339 l 135 406 l 67 406 l 67 813 l 135 813 l 135 881 l 203 881 l 203 949 l 610 949 l 610 881 l 678 881 l 678 813 l 746 813 l 746 678 l 610 678 l 610 746 l 542 746 l 542 813 l 271 813 l 271 746 l 203 746 l 203 474 l 271 474 l 271 406 l 542 406 l 542 474 l 610 474 l 610 542 l 746 542 l 746 406 l 678 406 l 678 339 l 610 339 l 610 271 l 542 271 l 542 203 l 474 203 l 474 135 l 406 135 l 406 67 l 203 67 l 203 135 l 271 135 l 271 203 l 339 203 l 339 271 "},"È":{"x_min":67.828125,"x_max":746.046875,"ha":815,"o":"m 746 881 l 746 746 l 203 746 l 203 542 l 610 542 l 610 406 l 203 406 l 203 203 l 746 203 l 746 67 l 67 67 l 67 881 l 746 881 m 406 1152 l 406 1085 l 474 1085 l 474 1017 l 542 1017 l 542 949 l 406 949 l 406 1017 l 271 1017 l 271 1085 l 203 1085 l 203 1152 l 406 1152 "},"{":{"x_min":203.46875,"x_max":610.40625,"ha":815,"o":"m 406 1017 l 406 1152 l 610 1152 l 610 949 l 474 949 l 474 678 l 406 678 l 406 542 l 474 542 l 474 271 l 610 271 l 610 67 l 406 67 l 406 203 l 339 203 l 339 542 l 203 542 l 203 678 l 339 678 l 339 1017 l 406 1017 "},"X":{"x_min":67.828125,"x_max":746.046875,"ha":815,"o":"m 203 271 l 203 67 l 67 67 l 67 339 l 135 339 l 135 406 l 203 406 l 203 474 l 271 474 l 271 610 l 203 610 l 203 678 l 135 678 l 135 746 l 67 746 l 67 1017 l 203 1017 l 203 813 l 271 813 l 271 746 l 339 746 l 339 678 l 474 678 l 474 746 l 542 746 l 542 813 l 610 813 l 610 1017 l 746 1017 l 746 746 l 678 746 l 678 678 l 610 678 l 610 610 l 542 610 l 542 474 l 610 474 l 610 406 l 678 406 l 678 339 l 746 339 l 746 67 l 610 67 l 610 271 l 542 271 l 542 339 l 474 339 l 474 406 l 339 406 l 339 339 l 271 339 l 271 271 l 203 271 "},"ô":{"x_min":67.828125,"x_max":746.046875,"ha":815,"o":"m 271 203 l 542 203 l 542 271 l 610 271 l 610 542 l 542 542 l 542 610 l 271 610 l 271 542 l 203 542 l 203 271 l 271 271 l 271 203 m 203 67 l 203 135 l 135 135 l 135 203 l 67 203 l 67 610 l 135 610 l 135 678 l 203 678 l 203 746 l 610 746 l 610 678 l 678 678 l 678 610 l 746 610 l 746 203 l 678 203 l 678 135 l 610 135 l 610 67 l 203 67 m 474 1017 l 474 949 l 542 949 l 542 881 l 610 881 l 610 813 l 474 813 l 474 881 l 339 881 l 339 813 l 203 813 l 203 881 l 271 881 l 271 949 l 339 949 l 339 1017 l 474 1017 "},"¼":{"x_min":67.828125,"x_max":746.046875,"ha":815,"o":"m 135 1017 l 67 1017 l 67 1085 l 135 1085 l 135 1152 l 271 1152 l 271 746 l 339 746 l 339 678 l 67 678 l 67 746 l 135 746 l 135 1017 m 678 271 l 746 271 l 746 203 l 678 203 l 678 67 l 610 67 l 610 203 l 406 203 l 406 339 l 474 339 l 474 474 l 542 474 l 542 542 l 678 542 l 678 271 m 610 271 l 610 406 l 542 406 l 542 271 l 610 271 m 610 1085 l 610 1152 l 678 1152 l 678 1017 l 610 1017 l 610 881 l 542 881 l 542 746 l 474 746 l 474 610 l 406 610 l 406 542 l 339 542 l 339 406 l 271 406 l 271 271 l 203 271 l 203 135 l 135 135 l 135 67 l 67 67 l 67 203 l 135 203 l 135 339 l 203 339 l 203 474 l 271 474 l 271 610 l 339 610 l 339 678 l 406 678 l 406 813 l 474 813 l 474 949 l 542 949 l 542 1017 l 543 1017 l 543 1085 l 610 1085 "},"#":{"x_min":67.828125,"x_max":746.046875,"ha":815,"o":"m 203 610 l 67 610 l 67 746 l 203 746 l 203 949 l 339 949 l 339 813 l 474 813 l 474 1016 l 610 1016 l 610 881 l 746 881 l 746 746 l 610 746 l 610 542 l 746 542 l 746 406 l 610 406 l 610 202 l 474 202 l 474 339 l 339 339 l 339 136 l 203 136 l 203 271 l 67 271 l 67 406 l 203 406 l 203 610 m 339 678 l 339 474 l 474 474 l 474 678 l 339 678 "},"Ê":{"x_min":67.828125,"x_max":746.046875,"ha":815,"o":"m 746 881 l 746 746 l 203 746 l 203 542 l 610 542 l 610 406 l 203 406 l 203 203 l 746 203 l 746 67 l 67 67 l 67 881 l 746 881 m 474 1152 l 474 1085 l 542 1085 l 542 1017 l 610 1017 l 610 949 l 474 949 l 474 1017 l 339 1017 l 339 949 l 203 949 l 203 1017 l 271 1017 l 271 1085 l 339 1085 l 339 1152 l 474 1152 "},")":{"x_min":271.296875,"x_max":610.40625,"ha":815,"o":"m 406 135 l 406 67 l 271 67 l 271 135 l 339 135 l 339 203 l 406 203 l 406 271 l 474 271 l 474 949 l 406 949 l 406 1017 l 339 1017 l 339 1085 l 271 1085 l 271 1152 l 406 1152 l 406 1085 l 474 1085 l 474 1017 l 542 1017 l 542 949 l 610 949 l 610 271 l 542 271 l 542 203 l 474 203 l 474 135 l 406 135 "},"Å":{"x_min":67.828125,"x_max":746.046875,"ha":815,"o":"m 203 67 l 67 67 l 67 610 l 135 610 l 135 678 l 203 678 l 203 746 l 271 746 l 271 813 l 339 813 l 339 881 l 474 881 l 474 813 l 542 813 l 542 746 l 610 746 l 610 678 l 678 678 l 678 610 l 746 610 l 746 67 l 610 67 l 610 271 l 203 271 l 203 67 m 610 406 l 610 542 l 542 542 l 542 610 l 474 610 l 474 677 l 406 677 l 406 678 l 339 678 l 339 610 l 271 610 l 271 542 l 203 542 l 203 406 l 610 406 m 271 1085 l 339 1085 l 339 949 l 271 949 l 271 1085 m 339 881 l 339 949 l 474 949 l 474 881 l 339 881 m 474 1152 l 474 1085 l 339 1085 l 339 1152 l 474 1152 m 542 949 l 474 949 l 474 1085 l 542 1085 l 542 949 "},"ø":{"x_min":67.828125,"x_max":746.046875,"ha":815,"o":"m 542 678 l 271 678 l 271 610 l 203 610 l 203 339 l 271 339 l 271 406 l 339 406 l 339 474 l 406 474 l 406 542 l 474 542 l 474 610 l 542 610 l 542 678 m 271 67 l 271 135 l 203 135 l 203 67 l 67 67 l 67 203 l 135 203 l 135 271 l 67 271 l 67 678 l 135 678 l 135 746 l 203 746 l 203 813 l 542 813 l 542 746 l 610 746 l 610 813 l 746 813 l 746 678 l 678 678 l 678 610 l 746 610 l 746 203 l 678 203 l 678 135 l 610 135 l 610 67 l 271 67 m 542 203 l 542 271 l 610 271 l 610 542 l 542 542 l 542 474 l 474 474 l 474 406 l 406 406 l 406 339 l 339 339 l 339 271 l 271 271 l 271 203 l 542 203 "},"â":{"x_min":67.828125,"x_max":746.046875,"ha":815,"o":"m 271 203 l 542 203 l 542 271 l 610 271 l 610 339 l 542 339 l 542 406 l 271 406 l 271 339 l 203 339 l 203 271 l 271 271 l 271 203 m 203 67 l 203 135 l 135 135 l 135 203 l 67 203 l 67 406 l 135 406 l 135 474 l 203 474 l 203 542 l 542 542 l 542 474 l 610 474 l 610 610 l 542 610 l 542 610 l 203 610 l 203 746 l 610 746 l 610 678 l 678 678 l 678 610 l 746 610 l 746 67 l 610 67 l 610 135 l 542 135 l 542 67 l 203 67 m 474 1017 l 474 949 l 542 949 l 542 881 l 610 881 l 610 813 l 474 813 l 474 881 l 339 881 l 339 813 l 203 813 l 203 881 l 271 881 l 271 949 l 339 949 l 339 1017 l 474 1017 "},"}":{"x_min":203.46875,"x_max":610.40625,"ha":815,"o":"m 474 1017 l 474 678 l 610 678 l 610 542 l 474 542 l 474 203 l 406 203 l 406 67 l 203 67 l 203 271 l 339 271 l 339 542 l 406 542 l 406 678 l 339 678 l 339 949 l 203 949 l 203 1152 l 406 1152 l 406 1017 l 474 1017 "},"Ä":{"x_min":67.828125,"x_max":746.046875,"ha":815,"o":"m 203 67 l 67 67 l 67 610 l 135 610 l 135 678 l 203 678 l 203 746 l 271 746 l 271 813 l 339 813 l 339 881 l 474 881 l 474 813 l 542 813 l 542 746 l 610 746 l 610 678 l 678 678 l 678 610 l 746 610 l 746 67 l 610 67 l 610 271 l 203 271 l 203 67 m 610 406 l 610 542 l 542 542 l 542 610 l 474 610 l 474 677 l 406 677 l 406 678 l 339 678 l 339 610 l 271 610 l 271 542 l 203 542 l 203 406 l 610 406 m 203 1017 l 203 1152 l 339 1152 l 339 1017 l 203 1017 m 474 1152 l 610 1152 l 610 1017 l 474 1017 l 474 1152 "},"a":{"x_min":67.828125,"x_max":746.046875,"ha":815,"o":"m 271 203 l 542 203 l 542 271 l 610 271 l 610 406 l 542 406 l 542 474 l 271 474 l 271 406 l 203 406 l 203 271 l 271 271 l 271 203 m 203 67 l 203 135 l 135 135 l 135 203 l 67 203 l 67 474 l 135 474 l 135 542 l 203 542 l 203 610 l 542 610 l 542 542 l 610 542 l 610 678 l 542 678 l 542 746 l 203 746 l 203 881 l 610 881 l 610 813 l 678 813 l 678 746 l 746 746 l 746 67 l 610 67 l 610 135 l 542 135 l 542 67 l 203 67 "},"=":{"x_min":67.828125,"x_max":746.046875,"ha":815,"o":"m 746 746 l 746 610 l 67 610 l 67 746 l 746 746 m 746 474 l 746 339 l 67 339 l 67 474 l 746 474 "},"N":{"x_min":67.828125,"x_max":746.046875,"ha":815,"o":"m 203 610 l 203 67 l 67 67 l 67 1017 l 203 1017 l 203 814 l 271 814 l 271 746 l 339 746 l 339 678 l 406 678 l 406 610 l 474 610 l 474 542 l 542 542 l 542 474 l 610 474 l 610 1017 l 746 1017 l 746 67 l 610 67 l 610 271 l 542 271 l 542 339 l 474 339 l 474 406 l 406 406 l 406 474 l 339 474 l 339 542 l 271 542 l 271 610 l 203 610 "},"ú":{"x_min":67.828125,"x_max":746.046875,"ha":815,"o":"m 67 746 l 203 746 l 203 271 l 271 271 l 271 203 l 542 203 l 542 271 l 610 271 l 610 746 l 746 746 l 746 203 l 678 203 l 678 135 l 610 135 l 610 67 l 203 67 l 203 135 l 135 135 l 135 203 l 67 203 l 67 746 m 610 1017 l 610 949 l 542 949 l 542 881 l 406 881 l 406 813 l 271 813 l 271 881 l 339 881 l 339 949 l 406 949 l 406 1017 l 610 1017 "},"⁄":{"x_min":67.828125,"x_max":746.046875,"ha":815,"o":"m 610 1017 l 746 1017 l 746 746 l 678 746 l 678 678 l 610 678 l 610 610 l 542 610 l 542 542 l 474 542 l 474 474 l 406 474 l 406 406 l 339 406 l 339 339 l 271 339 l 271 271 l 203 271 l 203 67 l 67 67 l 67 339 l 135 339 l 135 406 l 203 406 l 203 474 l 271 474 l 271 542 l 339 542 l 339 610 l 406 610 l 406 678 l 474 678 l 474 746 l 542 746 l 542 813 l 610 813 l 610 1017 "},"2":{"x_min":67.828125,"x_max":746.046875,"ha":815,"o":"m 203 203 l 746 203 l 746 67 l 67 67 l 67 474 l 135 474 l 135 542 l 203 542 l 203 610 l 542 610 l 542 678 l 610 678 l 610 813 l 542 813 l 542 881 l 271 881 l 271 813 l 203 813 l 203 746 l 67 746 l 67 881 l 135 881 l 135 949 l 203 949 l 203 1017 l 610 1017 l 610 949 l 678 949 l 678 881 l 746 881 l 746 610 l 678 610 l 678 542 l 610 542 l 610 474 l 271 474 l 271 406 l 203 406 l 203 203 "},"ü":{"x_min":67.828125,"x_max":746.046875,"ha":815,"o":"m 67 746 l 203 746 l 203 271 l 271 271 l 271 203 l 542 203 l 542 271 l 610 271 l 610 746 l 746 746 l 746 203 l 678 203 l 678 135 l 610 135 l 610 67 l 203 67 l 203 135 l 135 135 l 135 203 l 67 203 l 67 746 m 203 881 l 203 1017 l 339 1017 l 339 881 l 203 881 m 474 1017 l 610 1017 l 610 881 l 474 881 l 474 1017 "},"Z":{"x_min":67.828125,"x_max":746.046875,"ha":815,"o":"m 610 813 l 610 881 l 67 881 l 67 1017 l 746 1017 l 746 746 l 678 746 l 678 678 l 610 678 l 610 610 l 542 610 l 542 542 l 474 542 l 474 474 l 406 474 l 406 406 l 339 406 l 339 339 l 271 339 l 271 271 l 203 271 l 203 203 l 746 203 l 746 67 l 67 67 l 67 339 l 135 339 l 135 406 l 203 406 l 203 474 l 270 474 l 270 542 l 338 542 l 338 610 l 406 610 l 406 678 l 474 678 l 474 746 l 543 746 l 543 813 l 610 813 "},"u":{"x_min":67.828125,"x_max":746.046875,"ha":815,"o":"m 67 813 l 203 813 l 203 271 l 271 271 l 271 203 l 542 203 l 542 271 l 610 271 l 610 813 l 746 813 l 746 203 l 678 203 l 678 135 l 610 135 l 610 67 l 203 67 l 203 135 l 135 135 l 135 203 l 67 203 l 67 813 "},"Ó":{"x_min":67.828125,"x_max":746.046875,"ha":815,"o":"m 406 1085 l 406 1152 l 610 1152 l 610 1085 l 542 1085 l 542 1017 l 406 1017 l 406 949 l 271 949 l 271 1017 l 339 1017 l 339 1085 l 406 1085 m 271 203 l 542 203 l 542 271 l 610 271 l 610 678 l 542 678 l 542 746 l 271 746 l 271 678 l 203 678 l 203 271 l 271 271 l 271 203 m 203 67 l 203 135 l 135 135 l 135 203 l 67 203 l 67 746 l 135 746 l 135 813 l 203 813 l 203 881 l 610 881 l 610 813 l 678 813 l 678 746 l 746 746 l 746 203 l 678 203 l 678 135 l 610 135 l 610 67 l 203 67 "},"k":{"x_min":67.828125,"x_max":746.046875,"ha":815,"o":"m 203 203 l 203 67 l 67 67 l 67 1017 l 203 1017 l 203 406 l 271 406 l 271 474 l 339 474 l 339 542 l 406 542 l 406 610 l 474 610 l 474 678 l 542 678 l 542 746 l 610 746 l 610 813 l 746 813 l 746 678 l 678 678 l 678 610 l 610 610 l 610 542 l 542 542 l 542 474 l 474 474 l 474 406 l 542 406 l 542 339 l 610 339 l 610 271 l 678 271 l 678 203 l 746 203 l 746 67 l 610 67 l 610 135 l 542 135 l 542 203 l 474 203 l 474 271 l 406 271 l 406 339 l 339 339 l 339 271 l 271 271 l 271 203 l 203 203 "},"Ù":{"x_min":67.828125,"x_max":746.046875,"ha":815,"o":"m 406 1152 l 406 1085 l 474 1085 l 474 1017 l 542 1017 l 542 949 l 406 949 l 406 1017 l 271 1017 l 271 1085 l 203 1085 l 203 1152 l 406 1152 m 135 203 l 67 203 l 67 881 l 203 881 l 203 271 l 271 271 l 271 203 l 542 203 l 542 271 l 610 271 l 610 881 l 746 881 l 746 203 l 678 203 l 678 135 l 610 135 l 610 67 l 203 67 l 203 135 l 135 135 l 135 203 "},"¢":{"x_min":67.828125,"x_max":746.71875,"ha":815,"o":"m 339 203 l 203 203 l 203 271 l 135 271 l 135 339 l 67 339 l 67 746 l 135 746 l 135 813 l 203 813 l 203 881 l 339 881 l 339 1017 l 474 1017 l 474 881 l 610 881 l 610 813 l 678 813 l 678 746 l 746 746 l 746 611 l 611 611 l 611 678 l 542 678 l 542 746 l 475 746 l 475 745 l 474 745 l 474 339 l 542 339 l 542 406 l 610 406 l 610 474 l 746 474 l 746 339 l 678 339 l 678 271 l 610 271 l 610 203 l 474 203 l 474 67 l 339 67 l 339 203 m 339 746 l 271 746 l 271 678 l 203 678 l 203 406 l 271 406 l 271 339 l 339 339 l 339 746 "},"ß":{"x_min":67.828125,"x_max":678.21875,"ha":815,"o":"m 203 949 l 203 67 l 67 67 l 67 1017 l 135 1017 l 135 1085 l 203 1085 l 203 1152 l 339 1152 l 339 1085 l 474 1085 l 474 1017 l 542 1017 l 542 746 l 474 746 l 474 542 l 542 542 l 542 474 l 610 474 l 610 406 l 678 406 l 678 135 l 610 135 l 610 67 l 271 67 l 271 203 l 542 203 l 542 339 l 474 339 l 474 406 l 406 406 l 406 474 l 339 474 l 339 746 l 406 746 l 406 949 l 339 949 l 339 1017 l 271 1017 l 271 949 l 203 949 "},"é":{"x_min":67.828125,"x_max":746.046875,"ha":815,"o":"m 746 271 l 746 203 l 678 203 l 678 135 l 610 135 l 610 67 l 203 67 l 203 135 l 135 135 l 135 203 l 67 203 l 67 610 l 135 610 l 135 678 l 203 678 l 203 746 l 610 746 l 610 678 l 678 678 l 678 610 l 746 610 l 746 406 l 678 406 l 678 339 l 203 339 l 203 271 l 271 271 l 271 203 l 542 203 l 542 271 l 746 271 m 203 474 l 610 474 l 610 542 l 542 542 l 542 610 l 271 610 l 271 542 l 203 542 l 203 474 m 406 949 l 406 1017 l 610 1017 l 610 949 l 542 949 l 542 881 l 406 881 l 406 813 l 271 813 l 271 881 l 339 881 l 339 949 l 406 949 "},"↓":{"x_min":67.828125,"x_max":746.046875,"ha":815,"o":"m 610 746 l 610 881 l 746 881 l 746 746 l 678 746 l 678 610 l 610 610 l 610 474 l 542 474 l 542 339 l 474 339 l 474 203 l 339 203 l 339 339 l 271 339 l 271 474 l 203 474 l 203 610 l 135 610 l 135 746 l 67 746 l 67 881 l 203 881 l 203 746 l 271 746 l 271 610 l 339 610 l 339 474 l 474 474 l 474 610 l 542 610 l 542 746 l 610 746 "},"s":{"x_min":67.828125,"x_max":746.046875,"ha":815,"o":"m 135 203 l 67 203 l 67 339 l 203 339 l 203 271 l 271 271 l 271 203 l 542 203 l 542 339 l 406 339 l 406 406 l 271 406 l 271 474 l 135 474 l 135 542 l 67 542 l 67 678 l 135 678 l 135 746 l 203 746 l 203 813 l 610 813 l 610 746 l 678 746 l 678 678 l 746 678 l 746 542 l 610 542 l 610 610 l 542 610 l 542 678 l 271 678 l 271 542 l 474 542 l 474 474 l 610 474 l 610 406 l 678 406 l 678 339 l 746 339 l 746 203 l 678 203 l 678 135 l 610 135 l 610 67 l 203 67 l 203 135 l 135 135 l 135 203 "},"B":{"x_min":67.828125,"x_max":746.046875,"ha":815,"o":"m 203 610 l 542 610 l 542 678 l 610 678 l 610 813 l 542 813 l 542 881 l 203 881 l 203 610 m 67 67 l 67 1017 l 610 1017 l 610 949 l 678 949 l 678 881 l 746 881 l 746 610 l 678 610 l 678 474 l 746 474 l 746 203 l 678 203 l 678 135 l 610 135 l 610 67 l 67 67 m 203 203 l 542 203 l 542 271 l 610 271 l 610 406 l 542 406 l 542 474 l 203 474 l 203 203 "},"…":{"x_min":67.828125,"x_max":746.046875,"ha":815,"o":"m 203 203 l 203 67 l 67 67 l 67 203 l 203 203 m 474 203 l 474 67 l 339 67 l 339 203 l 474 203 m 746 203 l 746 67 l 610 67 l 610 203 l 746 203 "},"?":{"x_min":67.828125,"x_max":746.71875,"ha":815,"o":"m 474 203 l 474 67 l 339 67 l 339 203 l 474 203 m 474 542 l 474 610 l 542 610 l 542 678 l 610 678 l 610 746 l 611 746 l 611 813 l 542 813 l 542 881 l 271 881 l 271 813 l 203 813 l 203 746 l 67 746 l 67 881 l 135 881 l 135 949 l 203 949 l 203 1017 l 610 1017 l 610 949 l 678 949 l 678 881 l 746 881 l 746 746 l 746 746 l 746 610 l 678 610 l 678 542 l 610 542 l 610 474 l 542 474 l 542 406 l 474 406 l 474 339 l 339 339 l 339 474 l 406 474 l 406 542 l 474 542 "},"H":{"x_min":67.828125,"x_max":746.046875,"ha":815,"o":"m 203 474 l 203 67 l 67 67 l 67 1017 l 203 1017 l 203 610 l 610 610 l 610 1017 l 746 1017 l 746 67 l 610 67 l 610 474 l 203 474 "},"î":{"x_min":135.640625,"x_max":610.40625,"ha":815,"o":"m 542 203 l 610 203 l 610 67 l 474 67 l 474 135 l 406 135 l 406 203 l 339 203 l 339 542 l 203 542 l 203 678 l 474 678 l 474 271 l 542 271 l 542 203 m 542 203 l 610 203 l 610 67 l 474 67 l 474 135 l 406 135 l 406 203 l 339 203 l 339 542 l 203 542 l 203 678 l 474 678 l 474 271 l 542 271 l 542 203 m 406 1017 l 406 949 l 474 949 l 474 881 l 542 881 l 542 813 l 406 813 l 406 881 l 271 881 l 271 813 l 135 813 l 135 881 l 203 881 l 203 949 l 271 949 l 271 1017 l 406 1017 "},"c":{"x_min":67.828125,"x_max":746.046875,"ha":815,"o":"m 610 271 l 610 339 l 746 339 l 746 203 l 678 203 l 678 135 l 610 135 l 610 67 l 203 67 l 203 135 l 135 135 l 135 203 l 67 203 l 67 678 l 135 678 l 135 746 l 203 746 l 203 813 l 610 813 l 610 746 l 678 746 l 678 678 l 746 678 l 746 542 l 610 542 l 610 610 l 542 610 l 542 678 l 271 678 l 271 610 l 203 610 l 203 271 l 271 271 l 271 203 l 542 203 l 542 271 l 610 271 "},"•":{"x_min":203.46875,"x_max":610.40625,"ha":815,"o":"m 271 678 l 271 746 l 542 746 l 542 678 l 610 678 l 610 474 l 542 474 l 542 406 l 271 406 l 271 474 l 203 474 l 203 678 l 271 678 "},"¥":{"x_min":135.640625,"x_max":678.21875,"ha":815,"o":"m 474 203 l 474 67 l 339 67 l 339 203 l 135 203 l 135 271 l 339 271 l 339 406 l 135 406 l 135 474 l 339 474 l 339 542 l 271 542 l 271 678 l 203 678 l 203 813 l 135 813 l 135 1017 l 271 1017 l 271 813 l 339 813 l 339 678 l 474 678 l 474 813 l 542 813 l 542 1017 l 678 1017 l 678 813 l 610 813 l 610 678 l 542 678 l 542 542 l 474 542 l 474 474 l 678 474 l 678 406 l 474 406 l 474 271 l 678 271 l 678 203 l 474 203 "},"(":{"x_min":203.46875,"x_max":542.578125,"ha":815,"o":"m 474 135 l 542 135 l 542 67 l 406 67 l 406 135 l 339 135 l 339 203 l 271 203 l 271 271 l 203 271 l 203 949 l 271 949 l 271 1017 l 339 1017 l 339 1085 l 406 1085 l 406 1152 l 542 1152 l 542 1085 l 474 1085 l 474 1017 l 406 1017 l 406 949 l 339 949 l 339 271 l 406 271 l 406 203 l 474 203 l 474 135 "},"U":{"x_min":67.828125,"x_max":746.046875,"ha":815,"o":"m 135 203 l 67 203 l 67 1017 l 203 1017 l 203 271 l 271 271 l 271 203 l 542 203 l 542 271 l 610 271 l 610 1017 l 746 1017 l 746 203 l 678 203 l 678 135 l 610 135 l 610 67 l 203 67 l 203 135 l 135 135 l 135 203 "},"Ñ":{"x_min":67.828125,"x_max":746.046875,"ha":815,"o":"m 271 1085 l 271 1152 l 406 1152 l 406 1085 l 542 1085 l 542 1152 l 610 1152 l 610 1017 l 542 1017 l 542 949 l 406 949 l 406 1017 l 271 1017 l 271 949 l 203 949 l 203 1085 l 271 1085 m 203 542 l 203 67 l 67 67 l 67 881 l 203 881 l 203 746 l 271 746 l 271 678 l 339 678 l 339 610 l 406 610 l 406 542 l 474 542 l 474 474 l 542 474 l 542 406 l 610 406 l 610 881 l 746 881 l 746 67 l 610 67 l 610 203 l 542 203 l 542 271 l 474 271 l 474 339 l 406 339 l 406 406 l 339 406 l 339 474 l 271 474 l 271 542 l 203 542 "},"F":{"x_min":67.828125,"x_max":746.046875,"ha":815,"o":"m 746 1017 l 746 881 l 203 881 l 203 610 l 610 610 l 610 474 l 203 474 l 203 67 l 67 67 l 67 1017 l 746 1017 "},"­":{"x_min":135.640625,"x_max":678.21875,"ha":815,"o":"m 678 610 l 678 474 l 135 474 l 135 610 l 678 610 "},":":{"x_min":271.296875,"x_max":406.9375,"ha":815,"o":"m 406 339 l 406 203 l 271 203 l 271 339 l 406 339 m 406 881 l 406 746 l 271 746 l 271 881 l 406 881 "},"←":{"x_min":67.828125,"x_max":746.046875,"ha":815,"o":"m 339 813 l 339 881 l 474 881 l 474 813 l 406 813 l 406 746 l 339 746 l 339 678 l 271 678 l 271 610 l 746 610 l 746 474 l 271 474 l 271 406 l 339 406 l 339 339 l 406 339 l 406 271 l 474 271 l 474 203 l 339 203 l 339 271 l 271 271 l 271 339 l 203 339 l 203 406 l 135 406 l 135 474 l 67 474 l 67 610 l 135 610 l 135 678 l 203 678 l 203 746 l 271 746 l 271 813 l 339 813 "},"Û":{"x_min":67.828125,"x_max":746.046875,"ha":815,"o":"m 135 203 l 67 203 l 67 881 l 203 881 l 203 271 l 271 271 l 271 203 l 542 203 l 542 271 l 610 271 l 610 881 l 746 881 l 746 203 l 678 203 l 678 135 l 610 135 l 610 67 l 203 67 l 203 135 l 135 135 l 135 203 m 474 1152 l 474 1085 l 542 1085 l 542 1017 l 610 1017 l 610 949 l 474 949 l 474 1017 l 339 1017 l 339 949 l 203 949 l 203 1017 l 271 1017 l 271 1085 l 339 1085 l 339 1152 l 474 1152 "},"*":{"x_min":135.640625,"x_max":678.21875,"ha":815,"o":"m 203 610 l 203 542 l 135 542 l 135 678 l 203 678 l 203 746 l 271 746 l 271 813 l 203 813 l 203 881 l 135 881 l 135 1017 l 203 1017 l 203 949 l 271 949 l 271 881 l 339 881 l 339 1085 l 474 1085 l 474 881 l 542 881 l 542 949 l 610 949 l 610 1017 l 678 1017 l 678 881 l 610 881 l 610 813 l 542 813 l 542 746 l 610 746 l 610 678 l 678 678 l 678 542 l 610 542 l 610 610 l 542 610 l 542 678 l 474 678 l 474 474 l 339 474 l 339 678 l 271 678 l 271 610 l 203 610 "},"∕":{"x_min":67.828125,"x_max":746.046875,"ha":815,"o":"m 610 1017 l 746 1017 l 746 746 l 678 746 l 678 678 l 610 678 l 610 610 l 542 610 l 542 542 l 474 542 l 474 474 l 406 474 l 406 406 l 339 406 l 339 339 l 271 339 l 271 271 l 203 271 l 203 67 l 67 67 l 67 339 l 135 339 l 135 406 l 203 406 l 203 474 l 271 474 l 271 542 l 339 542 l 339 610 l 406 610 l 406 678 l 474 678 l 474 746 l 542 746 l 542 813 l 610 813 l 610 1017 "},"°":{"x_min":67.828125,"x_max":610.40625,"ha":815,"o":"m 203 949 l 203 1017 l 474 1017 l 474 949 l 542 949 l 542 881 l 610 881 l 610 610 l 542 610 l 542 542 l 474 542 l 474 474 l 203 474 l 203 542 l 135 542 l 135 610 l 67 610 l 67 881 l 135 881 l 135 949 l 203 949 m 271 881 l 271 813 l 203 813 l 203 678 l 271 678 l 271 610 l 406 610 l 406 678 l 474 678 l 474 813 l 406 813 l 406 881 l 271 881 "},"V":{"x_min":67.828125,"x_max":746.046875,"ha":815,"o":"m 135 339 l 67 339 l 67 1017 l 203 1017 l 203 406 l 271 406 l 271 339 l 339 339 l 339 271 l 474 271 l 474 337 l 542 337 l 542 406 l 610 406 l 610 1017 l 746 1017 l 746 339 l 678 339 l 678 271 l 610 271 l 610 202 l 542 202 l 542 135 l 474 135 l 474 67 l 339 67 l 339 135 l 271 135 l 271 203 l 203 203 l 203 271 l 135 271 l 135 339 "},"å":{"x_min":67.828125,"x_max":746.046875,"ha":815,"o":"m 271 203 l 542 203 l 542 271 l 610 271 l 610 339 l 542 339 l 542 406 l 271 406 l 271 339 l 203 339 l 203 271 l 271 271 l 271 203 m 203 67 l 203 135 l 135 135 l 135 203 l 67 203 l 67 406 l 135 406 l 135 474 l 203 474 l 203 542 l 542 542 l 542 474 l 610 474 l 610 610 l 542 610 l 542 610 l 203 610 l 203 746 l 610 746 l 610 678 l 678 678 l 678 610 l 746 610 l 746 67 l 610 67 l 610 135 l 542 135 l 542 67 l 203 67 m 271 949 l 339 949 l 339 813 l 271 813 l 271 949 m 339 746 l 339 813 l 474 813 l 474 746 l 339 746 m 474 1017 l 474 949 l 339 949 l 339 1017 l 474 1017 m 542 813 l 474 813 l 474 949 l 542 949 l 542 813 "}," ":{"x_min":0,"x_max":0,"ha":815},"0":{"x_min":67.828125,"x_max":746.046875,"ha":815,"o":"m 271 474 l 271 542 l 339 542 l 339 610 l 406 610 l 406 678 l 474 678 l 474 746 l 610 746 l 610 813 l 542 813 l 542 881 l 271 881 l 271 813 l 203 813 l 203 474 l 271 474 m 203 339 l 203 271 l 271 271 l 271 203 l 543 203 l 543 270 l 610 270 l 610 610 l 542 610 l 542 542 l 474 542 l 474 474 l 406 474 l 406 406 l 339 406 l 339 339 l 203 339 m 203 949 l 203 1017 l 610 1017 l 610 949 l 678 949 l 678 881 l 746 881 l 746 203 l 678 203 l 678 134 l 610 134 l 610 67 l 203 67 l 203 135 l 135 135 l 135 203 l 67 203 l 67 881 l 135 881 l 135 949 l 203 949 "},"”":{"x_min":135.640625,"x_max":678.21875,"ha":815,"o":"m 474 610 l 474 678 l 542 678 l 542 610 l 474 610 m 203 813 l 135 813 l 135 1017 l 339 1017 l 339 746 l 271 746 l 271 678 l 203 678 l 203 813 m 542 813 l 474 813 l 474 1017 l 678 1017 l 678 746 l 610 746 l 610 678 l 542 678 l 542 813 m 135 610 l 135 678 l 203 678 l 203 610 l 135 610 "},"¾":{"x_min":67.828125,"x_max":746.046875,"ha":815,"o":"m 339 1085 l 406 1085 l 406 949 l 339 949 l 339 881 l 406 881 l 406 746 l 339 746 l 339 678 l 135 678 l 135 746 l 67 746 l 67 813 l 203 813 l 203 746 l 271 746 l 271 881 l 203 881 l 203 949 l 271 949 l 271 1085 l 203 1085 l 203 1017 l 67 1017 l 67 1085 l 135 1085 l 135 1152 l 339 1152 l 339 1085 m 678 271 l 746 271 l 746 203 l 678 203 l 678 67 l 610 67 l 610 203 l 406 203 l 406 339 l 474 339 l 474 474 l 542 474 l 542 542 l 678 542 l 678 271 m 610 271 l 610 406 l 542 406 l 542 271 l 610 271 m 678 1085 l 678 1152 l 746 1152 l 746 1017 l 678 1017 l 678 881 l 610 881 l 610 746 l 542 746 l 542 610 l 474 610 l 474 542 l 406 542 l 406 406 l 339 406 l 339 271 l 271 271 l 271 135 l 203 135 l 203 67 l 135 67 l 135 203 l 203 203 l 203 339 l 271 339 l 271 474 l 339 474 l 339 610 l 406 610 l 406 678 l 474 678 l 474 813 l 542 813 l 542 949 l 610 949 l 610 1017 l 611 1017 l 611 1085 l 678 1085 "},"@":{"x_min":67.828125,"x_max":746.046875,"ha":815,"o":"m 406 678 l 339 678 l 339 406 l 406 406 l 406 678 m 542 339 l 542 406 l 610 406 l 610 474 l 678 474 l 678 746 l 610 746 l 610 813 l 542 813 l 542 881 l 271 881 l 271 813 l 203 813 l 203 746 l 135 746 l 135 339 l 203 339 l 203 271 l 271 271 l 271 203 l 542 203 l 542 271 l 678 271 l 678 203 l 610 203 l 610 135 l 203 135 l 203 203 l 135 203 l 135 271 l 67 271 l 67 813 l 135 813 l 135 881 l 203 881 l 203 949 l 610 949 l 610 881 l 678 881 l 678 813 l 746 813 l 746 406 l 678 406 l 678 339 l 542 339 m 542 406 l 474 406 l 474 339 l 271 339 l 271 406 l 203 406 l 203 678 l 271 678 l 271 746 l 406 746 l 406 678 l 474 678 l 474 746 l 542 746 l 542 406 "},"ö":{"x_min":67.828125,"x_max":746.046875,"ha":815,"o":"m 271 203 l 542 203 l 542 271 l 610 271 l 610 542 l 542 542 l 542 610 l 271 610 l 271 542 l 203 542 l 203 271 l 271 271 l 271 203 m 203 67 l 203 135 l 135 135 l 135 203 l 67 203 l 67 610 l 135 610 l 135 678 l 203 678 l 203 746 l 610 746 l 610 678 l 678 678 l 678 610 l 746 610 l 746 203 l 678 203 l 678 135 l 610 135 l 610 67 l 203 67 m 203 881 l 203 1017 l 339 1017 l 339 881 l 203 881 m 474 1017 l 610 1017 l 610 881 l 474 881 l 474 1017 "},"i":{"x_min":203.46875,"x_max":610.40625,"ha":815,"o":"m 474 949 l 474 813 l 339 813 l 339 949 l 474 949 m 542 203 l 610 203 l 610 67 l 474 67 l 474 135 l 406 135 l 406 203 l 339 203 l 339 542 l 203 542 l 203 678 l 474 678 l 474 271 l 542 271 l 542 203 "},"Õ":{"x_min":67.828125,"x_max":746.046875,"ha":815,"o":"m 271 203 l 542 203 l 542 271 l 610 271 l 610 678 l 542 678 l 542 746 l 271 746 l 271 678 l 203 678 l 203 271 l 271 271 l 271 203 m 203 67 l 203 135 l 135 135 l 135 203 l 67 203 l 67 746 l 135 746 l 135 813 l 203 813 l 203 881 l 610 881 l 610 813 l 678 813 l 678 746 l 746 746 l 746 203 l 678 203 l 678 135 l 610 135 l 610 67 l 203 67 m 542 1017 l 542 949 l 406 949 l 406 1017 l 271 1017 l 271 949 l 203 949 l 203 1085 l 271 1085 l 271 1152 l 406 1152 l 406 1085 l 542 1085 l 542 1152 l 610 1152 l 610 1017 l 542 1017 "},"þ":{"x_min":67.828125,"x_max":746.046875,"ha":815,"o":"m 203 271 l 203 67 l 67 67 l 67 949 l 203 949 l 203 746 l 339 746 l 339 813 l 610 813 l 610 746 l 678 746 l 678 678 l 746 678 l 746 339 l 678 339 l 678 271 l 610 271 l 610 203 l 339 203 l 339 271 l 203 271 m 203 610 l 203 406 l 339 406 l 339 339 l 542 339 l 542 406 l 610 406 l 610 610 l 542 610 l 542 678 l 339 678 l 339 610 l 203 610 "},"]":{"x_min":135.640625,"x_max":542.578125,"ha":815,"o":"m 406 1017 l 135 1017 l 135 1152 l 542 1152 l 542 67 l 135 67 l 135 203 l 406 203 l 406 1017 "},"m":{"x_min":67.828125,"x_max":746.046875,"ha":815,"o":"m 203 610 l 203 67 l 67 67 l 67 813 l 203 813 l 203 746 l 271 746 l 271 813 l 610 813 l 610 746 l 678 746 l 678 678 l 746 678 l 746 67 l 610 67 l 610 610 l 542 610 l 542 678 l 474 678 l 474 67 l 339 67 l 339 678 l 271 678 l 271 610 l 203 610 "},"8":{"x_min":67.828125,"x_max":746.046875,"ha":815,"o":"m 271 203 l 542 203 l 542 271 l 610 271 l 610 407 l 541 407 l 541 474 l 271 474 l 271 406 l 203 406 l 203 271 l 271 271 l 271 203 m 610 135 l 610 67 l 203 67 l 203 135 l 135 135 l 135 203 l 67 203 l 67 474 l 135 474 l 135 610 l 67 610 l 67 881 l 135 881 l 135 949 l 203 949 l 203 1017 l 610 1017 l 610 949 l 678 949 l 678 881 l 746 881 l 746 610 l 678 610 l 678 541 l 677 541 l 677 474 l 746 474 l 746 203 l 678 203 l 678 135 l 610 135 m 542 881 l 271 881 l 271 813 l 203 813 l 203 678 l 271 678 l 271 610 l 542 610 l 542 677 l 610 677 l 610 813 l 542 813 l 542 881 "},"R":{"x_min":67.828125,"x_max":746.046875,"ha":815,"o":"m 203 881 l 203 610 l 542 610 l 542 678 l 610 678 l 610 813 l 542 813 l 542 881 l 203 881 m 271 474 l 203 474 l 203 67 l 67 67 l 67 1017 l 610 1017 l 610 949 l 678 949 l 678 881 l 746 881 l 746 610 l 678 610 l 678 542 l 610 542 l 610 474 l 474 474 l 474 406 l 542 406 l 542 339 l 610 339 l 610 271 l 678 271 l 678 203 l 746 203 l 746 67 l 610 67 l 610 136 l 542 136 l 542 203 l 474 203 l 474 271 l 406 271 l 406 339 l 339 339 l 339 406 l 271 406 l 271 474 "},"á":{"x_min":67.828125,"x_max":746.046875,"ha":815,"o":"m 271 203 l 542 203 l 542 271 l 610 271 l 610 339 l 542 339 l 542 406 l 271 406 l 271 339 l 203 339 l 203 271 l 271 271 l 271 203 m 203 67 l 203 135 l 135 135 l 135 203 l 67 203 l 67 406 l 135 406 l 135 474 l 203 474 l 203 542 l 542 542 l 542 474 l 610 474 l 610 610 l 542 610 l 542 610 l 203 610 l 203 746 l 610 746 l 610 678 l 678 678 l 678 610 l 746 610 l 746 67 l 610 67 l 610 135 l 542 135 l 542 67 l 203 67 m 406 949 l 406 1017 l 610 1017 l 610 949 l 542 949 l 542 881 l 406 881 l 406 813 l 271 813 l 271 881 l 339 881 l 339 949 l 406 949 "},"o":{"x_min":67.828125,"x_max":746.046875,"ha":815,"o":"m 271 203 l 542 203 l 542 271 l 610 271 l 610 610 l 542 610 l 542 678 l 271 678 l 271 610 l 203 610 l 203 271 l 271 271 l 271 203 m 203 67 l 203 135 l 135 135 l 135 203 l 67 203 l 67 678 l 135 678 l 135 746 l 203 746 l 203 813 l 610 813 l 610 746 l 678 746 l 678 678 l 746 678 l 746 203 l 678 203 l 678 135 l 610 135 l 610 67 l 203 67 "},"5":{"x_min":67.828125,"x_max":746.046875,"ha":815,"o":"m 67 1017 l 746 1017 l 746 881 l 203 881 l 203 746 l 610 746 l 610 678 l 678 678 l 678 610 l 745 610 l 745 474 l 746 474 l 746 203 l 678 203 l 678 135 l 610 135 l 610 67 l 203 67 l 203 135 l 135 135 l 135 204 l 67 204 l 67 339 l 203 339 l 203 271 l 271 271 l 271 203 l 542 203 l 542 271 l 610 271 l 610 474 l 609 474 l 609 542 l 542 542 l 542 610 l 67 610 l 67 1017 "},"õ":{"x_min":67.828125,"x_max":746.046875,"ha":815,"o":"m 271 203 l 542 203 l 542 271 l 610 271 l 610 542 l 542 542 l 542 610 l 271 610 l 271 542 l 203 542 l 203 271 l 271 271 l 271 203 m 203 67 l 203 135 l 135 135 l 135 203 l 67 203 l 67 610 l 135 610 l 135 678 l 203 678 l 203 746 l 610 746 l 610 678 l 678 678 l 678 610 l 746 610 l 746 203 l 678 203 l 678 135 l 610 135 l 610 67 l 203 67 m 542 881 l 542 813 l 406 813 l 406 881 l 271 881 l 271 813 l 203 813 l 203 949 l 271 949 l 271 1017 l 406 1017 l 406 949 l 542 949 l 542 1017 l 610 1017 l 610 881 l 542 881 "},"7":{"x_min":67.828125,"x_max":746.046875,"ha":815,"o":"m 610 881 l 67 881 l 67 1017 l 746 1017 l 746 678 l 678 678 l 678 610 l 610 610 l 610 542 l 542 542 l 542 474 l 474 474 l 474 67 l 339 67 l 339 542 l 406 542 l 406 610 l 474 610 l 474 678 l 542 678 l 542 746 l 610 746 l 610 881 "},"K":{"x_min":67.828125,"x_max":746.046875,"ha":815,"o":"m 203 474 l 203 67 l 67 67 l 67 1017 l 203 1017 l 203 610 l 271 610 l 271 678 l 339 678 l 339 746 l 406 746 l 406 813 l 474 813 l 474 881 l 542 881 l 542 949 l 610 949 l 610 1017 l 746 1017 l 746 881 l 678 881 l 678 813 l 610 813 l 610 746 l 542 746 l 542 678 l 474 678 l 474 610 l 406 610 l 406 474 l 474 474 l 474 406 l 542 406 l 542 339 l 610 339 l 610 271 l 678 271 l 678 203 l 746 203 l 746 67 l 610 67 l 610 135 l 542 135 l 542 203 l 474 203 l 474 271 l 406 271 l 406 339 l 339 339 l 339 406 l 271 406 l 271 474 l 203 474 "},",":{"x_min":203.46875,"x_max":474.75,"ha":815,"o":"m 339 203 l 339 339 l 474 339 l 474 203 l 406 203 l 406 135 l 339 135 l 339 67 l 203 67 l 203 135 l 271 135 l 271 203 l 339 203 "},"d":{"x_min":67.828125,"x_max":746.046875,"ha":815,"o":"m 610 678 l 610 1017 l 746 1017 l 746 67 l 610 67 l 610 203 l 542 203 l 542 135 l 474 135 l 474 67 l 271 67 l 271 135 l 203 135 l 203 203 l 135 203 l 135 271 l 67 271 l 67 610 l 135 610 l 135 678 l 203 678 l 203 746 l 271 746 l 271 813 l 474 813 l 474 746 l 542 746 l 542 678 l 610 678 m 271 271 l 339 271 l 339 203 l 406 203 l 406 271 l 474 271 l 474 339 l 542 339 l 542 542 l 474 542 l 474 610 l 406 610 l 406 678 l 339 678 l 339 610 l 271 610 l 271 542 l 203 542 l 203 339 l 271 339 l 271 271 "},"¨":{"x_min":203.46875,"x_max":610.40625,"ha":815,"o":"m 339 1017 l 339 881 l 203 881 l 203 1017 l 339 1017 m 610 1017 l 610 881 l 474 881 l 474 1017 l 610 1017 "},"Ô":{"x_min":67.828125,"x_max":746.046875,"ha":815,"o":"m 271 203 l 542 203 l 542 271 l 610 271 l 610 678 l 542 678 l 542 746 l 271 746 l 271 678 l 203 678 l 203 271 l 271 271 l 271 203 m 203 67 l 203 135 l 135 135 l 135 203 l 67 203 l 67 746 l 135 746 l 135 813 l 203 813 l 203 881 l 610 881 l 610 813 l 678 813 l 678 746 l 746 746 l 746 203 l 678 203 l 678 135 l 610 135 l 610 67 l 203 67 m 474 1152 l 474 1085 l 542 1085 l 542 1017 l 610 1017 l 610 949 l 474 949 l 474 1017 l 339 1017 l 339 949 l 203 949 l 203 1017 l 271 1017 l 271 1085 l 339 1085 l 339 1152 l 474 1152 "},"E":{"x_min":67.828125,"x_max":746.046875,"ha":815,"o":"m 746 1017 l 746 881 l 203 881 l 203 610 l 610 610 l 610 474 l 203 474 l 203 203 l 746 203 l 746 67 l 67 67 l 67 1017 l 746 1017 "},"Y":{"x_min":67.828125,"x_max":746.046875,"ha":815,"o":"m 474 67 l 339 67 l 339 406 l 271 406 l 271 474 l 203 474 l 203 542 l 135 542 l 135 611 l 67 611 l 67 1017 l 203 1017 l 203 678 l 271 678 l 271 610 l 339 610 l 339 542 l 474 542 l 474 610 l 542 610 l 542 678 l 610 678 l 610 1017 l 746 1017 l 746 610 l 678 610 l 678 542 l 610 542 l 610 474 l 542 474 l 542 406 l 474 406 l 474 67 "},"\"":{"x_min":135.640625,"x_max":678.21875,"ha":815,"o":"m 610 813 l 610 746 l 542 746 l 542 813 l 474 813 l 474 1017 l 678 1017 l 678 813 l 610 813 m 339 1017 l 339 813 l 271 813 l 271 746 l 203 746 l 203 813 l 135 813 l 135 1017 l 339 1017 "},"‹":{"x_min":135.640625,"x_max":474.75,"ha":815,"o":"m 203 339 l 135 339 l 135 406 l 203 406 l 203 474 l 271 474 l 271 542 l 339 542 l 339 610 l 406 610 l 406 678 l 474 678 l 474 542 l 406 542 l 406 474 l 339 474 l 339 406 l 271 406 l 271 339 l 339 339 l 339 271 l 406 271 l 406 203 l 474 203 l 474 67 l 406 67 l 406 135 l 339 135 l 339 203 l 271 203 l 271 271 l 203 271 l 203 339 "},"ê":{"x_min":67.828125,"x_max":746.046875,"ha":815,"o":"m 746 271 l 746 203 l 678 203 l 678 135 l 610 135 l 610 67 l 203 67 l 203 135 l 135 135 l 135 203 l 67 203 l 67 610 l 135 610 l 135 678 l 203 678 l 203 746 l 610 746 l 610 678 l 678 678 l 678 610 l 746 610 l 746 406 l 678 406 l 678 339 l 203 339 l 203 271 l 271 271 l 271 203 l 542 203 l 542 271 l 746 271 m 203 474 l 610 474 l 610 542 l 542 542 l 542 610 l 271 610 l 271 542 l 203 542 l 203 474 m 474 1017 l 474 949 l 542 949 l 542 881 l 610 881 l 610 813 l 474 813 l 474 881 l 339 881 l 339 813 l 203 813 l 203 881 l 271 881 l 271 949 l 339 949 l 339 1017 l 474 1017 "},"Ï":{"x_min":203.46875,"x_max":610.40625,"ha":815,"o":"m 203 67 l 203 203 l 339 203 l 339 746 l 203 746 l 203 881 l 610 881 l 610 746 l 474 746 l 474 203 l 610 203 l 610 67 l 203 67 m 339 1152 l 339 1017 l 203 1017 l 203 1152 l 339 1152 m 610 1152 l 610 1017 l 474 1017 l 474 1152 l 610 1152 "},"Â":{"x_min":67.828125,"x_max":746.046875,"ha":815,"o":"m 474 1152 l 474 1085 l 542 1085 l 542 1017 l 610 1017 l 610 949 l 474 949 l 474 1017 l 339 1017 l 339 949 l 203 949 l 203 1017 l 271 1017 l 271 1085 l 339 1085 l 339 1152 l 474 1152 m 203 67 l 67 67 l 67 610 l 135 610 l 135 678 l 203 678 l 203 746 l 271 746 l 271 813 l 339 813 l 339 881 l 474 881 l 474 813 l 542 813 l 542 746 l 610 746 l 610 678 l 678 678 l 678 610 l 746 610 l 746 67 l 610 67 l 610 271 l 203 271 l 203 67 m 610 406 l 610 542 l 542 542 l 542 610 l 474 610 l 474 677 l 406 677 l 406 678 l 339 678 l 339 610 l 271 610 l 271 542 l 203 542 l 203 406 l 610 406 "},"↔":{"x_min":67.828125,"x_max":746.046875,"ha":815,"o":"m 67 610 l 406 610 l 406 813 l 474 813 l 474 746 l 542 746 l 542 678 l 610 678 l 610 610 l 678 610 l 678 542 l 746 542 l 746 406 l 678 406 l 678 339 l 610 339 l 610 271 l 542 271 l 542 203 l 474 203 l 474 135 l 406 135 l 406 339 l 67 339 l 67 610 "},"Í":{"x_min":203.46875,"x_max":610.40625,"ha":815,"o":"m 203 67 l 203 203 l 339 203 l 339 746 l 203 746 l 203 881 l 610 881 l 610 746 l 474 746 l 474 203 l 610 203 l 610 67 l 203 67 m 610 1152 l 610 1085 l 543 1085 l 543 1017 l 406 1017 l 406 949 l 271 949 l 271 1017 l 339 1017 l 339 1085 l 407 1085 l 407 1152 l 610 1152 "},"´":{"x_min":271.296875,"x_max":610.40625,"ha":815,"o":"m 610 1017 l 610 949 l 543 949 l 543 881 l 406 881 l 406 813 l 271 813 l 271 881 l 339 881 l 339 949 l 407 949 l 407 1017 l 610 1017 "},"ì":{"x_min":135.640625,"x_max":610.40625,"ha":815,"o":"m 542 203 l 610 203 l 610 67 l 474 67 l 474 135 l 406 135 l 406 203 l 339 203 l 339 542 l 203 542 l 203 678 l 474 678 l 474 271 l 542 271 l 542 203 m 542 203 l 610 203 l 610 67 l 474 67 l 474 135 l 406 135 l 406 203 l 339 203 l 339 542 l 203 542 l 203 678 l 474 678 l 474 271 l 542 271 l 542 203 m 339 1017 l 339 949 l 406 949 l 406 881 l 474 881 l 474 813 l 339 813 l 339 881 l 203 881 l 203 949 l 135 949 l 135 1017 l 339 1017 "},"Ú":{"x_min":67.828125,"x_max":746.046875,"ha":815,"o":"m 610 1152 l 610 1085 l 542 1085 l 542 1017 l 406 1017 l 406 949 l 271 949 l 271 1017 l 339 1017 l 339 1085 l 406 1085 l 406 1152 l 610 1152 m 135 203 l 67 203 l 67 881 l 203 881 l 203 271 l 271 271 l 271 203 l 542 203 l 542 271 l 610 271 l 610 881 l 746 881 l 746 203 l 678 203 l 678 135 l 610 135 l 610 67 l 203 67 l 203 135 l 135 135 l 135 203 "},"|":{"x_min":339.109375,"x_max":474.75,"ha":815,"o":"m 474 1152 l 474 67 l 339 67 l 339 1152 l 474 1152 "},"Ý":{"x_min":67.828125,"x_max":746.046875,"ha":815,"o":"m 406 1085 l 406 1152 l 610 1152 l 610 1085 l 542 1085 l 542 1017 l 406 1017 l 406 949 l 271 949 l 271 1017 l 339 1017 l 339 1085 l 406 1085 m 67 881 l 203 881 l 203 678 l 271 678 l 271 610 l 339 610 l 339 542 l 474 542 l 474 610 l 542 610 l 542 678 l 610 678 l 610 881 l 746 881 l 746 610 l 678 610 l 678 542 l 610 542 l 610 474 l 542 474 l 542 406 l 474 406 l 474 67 l 339 67 l 339 406 l 271 406 l 271 474 l 203 474 l 203 542 l 135 542 l 135 610 l 67 610 l 67 881 "},"b":{"x_min":67.828125,"x_max":746.046875,"ha":815,"o":"m 406 203 l 474 203 l 474 271 l 542 271 l 542 339 l 610 339 l 610 542 l 542 542 l 542 610 l 474 610 l 474 678 l 406 678 l 406 610 l 339 610 l 339 542 l 271 542 l 271 339 l 339 339 l 339 271 l 406 271 l 406 203 m 203 203 l 203 67 l 67 67 l 67 1017 l 203 1017 l 203 678 l 271 678 l 271 746 l 339 746 l 339 813 l 542 813 l 542 746 l 610 746 l 610 678 l 678 678 l 678 610 l 746 610 l 746 271 l 678 271 l 678 203 l 610 203 l 610 135 l 542 135 l 542 67 l 339 67 l 339 135 l 271 135 l 271 203 l 203 203 "},"q":{"x_min":67.828125,"x_max":746.046875,"ha":815,"o":"m 203 678 l 203 474 l 271 474 l 271 406 l 474 406 l 474 474 l 542 474 l 542 678 l 474 678 l 474 746 l 271 746 l 271 678 l 203 678 m 610 813 l 610 881 l 746 881 l 746 67 l 610 67 l 610 271 l 542 271 l 542 339 l 474 339 l 474 271 l 203 271 l 203 339 l 135 339 l 135 406 l 67 406 l 67 746 l 135 746 l 135 813 l 203 813 l 203 881 l 542 881 l 542 813 l 610 813 "},"Ö":{"x_min":67.828125,"x_max":746.046875,"ha":815,"o":"m 271 203 l 542 203 l 542 271 l 610 271 l 610 678 l 542 678 l 542 746 l 271 746 l 271 678 l 203 678 l 203 271 l 271 271 l 271 203 m 203 67 l 203 135 l 135 135 l 135 203 l 67 203 l 67 746 l 135 746 l 135 813 l 203 813 l 203 881 l 610 881 l 610 813 l 678 813 l 678 746 l 746 746 l 746 203 l 678 203 l 678 135 l 610 135 l 610 67 l 203 67 m 339 1152 l 339 1017 l 203 1017 l 203 1152 l 339 1152 m 610 1152 l 610 1017 l 474 1017 l 474 1152 l 610 1152 "},"z":{"x_min":67.828125,"x_max":746.046875,"ha":815,"o":"m 339 203 l 746 203 l 746 67 l 67 67 l 67 203 l 135 203 l 135 271 l 203 271 l 203 339 l 271 339 l 271 406 l 339 406 l 339 474 l 406 474 l 406 542 l 474 542 l 474 610 l 542 610 l 542 678 l 67 678 l 67 813 l 746 813 l 746 610 l 678 610 l 678 542 l 610 542 l 610 474 l 542 474 l 542 406 l 474 406 l 474 339 l 406 339 l 406 271 l 339 271 l 339 203 "},"™":{"x_min":67.828125,"x_max":746.046875,"ha":815,"o":"m 610 881 l 610 813 l 542 813 l 542 881 l 610 881 m 474 881 l 474 610 l 406 610 l 406 1017 l 474 1017 l 474 949 l 542 949 l 542 881 l 474 881 m 678 949 l 678 1017 l 746 1017 l 746 610 l 678 610 l 678 881 l 610 881 l 610 949 l 678 949 m 203 949 l 67 949 l 67 1017 l 406 1017 l 406 949 l 271 949 l 271 610 l 203 610 l 203 949 "},"ã":{"x_min":67.828125,"x_max":746.046875,"ha":815,"o":"m 271 203 l 542 203 l 542 271 l 610 271 l 610 339 l 542 339 l 542 406 l 271 406 l 271 339 l 203 339 l 203 271 l 271 271 l 271 203 m 203 67 l 203 135 l 135 135 l 135 203 l 67 203 l 67 406 l 135 406 l 135 474 l 203 474 l 203 542 l 542 542 l 542 474 l 610 474 l 610 610 l 542 610 l 542 610 l 203 610 l 203 746 l 610 746 l 610 678 l 678 678 l 678 610 l 746 610 l 746 67 l 610 67 l 610 135 l 542 135 l 542 67 l 203 67 m 542 881 l 542 813 l 406 813 l 406 881 l 271 881 l 271 813 l 203 813 l 203 949 l 271 949 l 271 1017 l 406 1017 l 406 949 l 542 949 l 542 1017 l 610 1017 l 610 881 l 542 881 "},"æ":{"x_min":67.828125,"x_max":746.046875,"ha":815,"o":"m 474 542 l 610 542 l 610 678 l 474 678 l 474 542 m 339 406 l 203 406 l 203 203 l 339 203 l 339 406 m 135 67 l 135 135 l 67 135 l 67 474 l 135 474 l 135 542 l 339 542 l 339 678 l 67 678 l 67 813 l 339 813 l 339 746 l 474 746 l 474 813 l 678 813 l 678 746 l 746 746 l 746 406 l 474 406 l 474 203 l 678 203 l 678 67 l 474 67 l 474 135 l 406 135 l 406 67 l 135 67 "},"®":{"x_min":67.828125,"x_max":746.046875,"ha":815,"o":"m 474 881 l 474 813 l 339 813 l 339 678 l 474 678 l 474 610 l 339 610 l 339 474 l 271 474 l 271 881 l 474 881 m 474 813 l 542 813 l 542 678 l 474 678 l 474 813 m 474 610 l 542 610 l 542 474 l 474 474 l 474 610 m 271 406 l 542 406 l 542 474 l 610 474 l 610 542 l 678 542 l 678 813 l 610 813 l 610 881 l 542 881 l 542 949 l 271 949 l 271 881 l 203 881 l 203 813 l 135 813 l 135 542 l 203 542 l 203 474 l 271 474 l 271 406 m 610 406 l 610 339 l 203 339 l 203 406 l 135 406 l 135 474 l 67 474 l 67 881 l 135 881 l 135 949 l 203 949 l 203 1017 l 610 1017 l 610 949 l 678 949 l 678 881 l 746 881 l 746 474 l 678 474 l 678 406 l 610 406 "},"É":{"x_min":67.828125,"x_max":746.046875,"ha":815,"o":"m 406 1085 l 406 1152 l 610 1152 l 610 1085 l 542 1085 l 542 1017 l 406 1017 l 406 949 l 271 949 l 271 1017 l 339 1017 l 339 1085 l 406 1085 m 746 881 l 746 746 l 203 746 l 203 542 l 610 542 l 610 406 l 203 406 l 203 203 l 746 203 l 746 67 l 67 67 l 67 881 l 746 881 "},"~":{"x_min":67.828125,"x_max":746.046875,"ha":815,"o":"m 203 609 l 203 678 l 406 678 l 406 610 l 474 610 l 474 542 l 610 542 l 610 610 l 678 610 l 678 678 l 746 678 l 746 542 l 678 542 l 678 474 l 610 474 l 610 406 l 406 406 l 406 474 l 339 474 l 339 542 l 203 542 l 203 474 l 135 474 l 135 406 l 67 406 l 67 542 l 135 542 l 135 609 l 203 609 "},"³":{"x_min":203.46875,"x_max":542.578125,"ha":815,"o":"m 474 1085 l 542 1085 l 542 949 l 474 949 l 474 881 l 542 881 l 542 746 l 474 746 l 474 678 l 271 678 l 271 746 l 203 746 l 203 813 l 339 813 l 339 746 l 406 746 l 406 881 l 339 881 l 339 949 l 406 949 l 406 1085 l 339 1085 l 339 1017 l 203 1017 l 203 1085 l 271 1085 l 271 1152 l 474 1152 l 474 1085 "},"¡":{"x_min":406.9375,"x_max":542.578125,"ha":815,"o":"m 406 881 l 406 1017 l 542 1017 l 542 881 l 406 881 m 406 746 l 542 746 l 542 67 l 406 67 l 406 746 "},"[":{"x_min":271.296875,"x_max":678.21875,"ha":815,"o":"m 678 1152 l 678 1017 l 406 1017 l 406 203 l 678 203 l 678 67 l 271 67 l 271 1152 l 678 1152 "},"L":{"x_min":67.828125,"x_max":746.046875,"ha":815,"o":"m 67 67 l 67 1017 l 203 1017 l 203 203 l 746 203 l 746 67 l 67 67 "},";":{"x_min":135.640625,"x_max":406.9375,"ha":815,"o":"m 406 881 l 406 746 l 271 746 l 271 881 l 406 881 m 271 203 l 271 339 l 406 339 l 406 203 l 339 203 l 339 135 l 271 135 l 271 67 l 135 67 l 135 135 l 203 135 l 203 203 l 271 203 "},"\u001d":{"x_min":0,"x_max":0,"ha":815}," ":{"x_min":0,"x_max":0,"ha":815},"%":{"x_min":67.828125,"x_max":746.71875,"ha":815,"o":"m 204 746 l 271 746 l 271 881 l 203 881 l 203 813 l 204 813 l 204 746 m 678 135 l 678 67 l 474 67 l 474 135 l 406 135 l 406 406 l 474 406 l 474 474 l 678 474 l 678 406 l 746 406 l 746 135 l 678 135 m 542 203 l 611 203 l 611 338 l 542 338 l 542 203 m 407 678 l 474 678 l 474 746 l 542 746 l 542 813 l 610 813 l 610 1017 l 746 1017 l 746 746 l 678 746 l 678 678 l 610 678 l 610 610 l 542 610 l 542 542 l 474 542 l 474 474 l 406 474 l 406 406 l 339 406 l 339 339 l 271 339 l 271 271 l 203 271 l 203 67 l 67 67 l 67 339 l 135 339 l 135 406 l 203 406 l 203 474 l 271 474 l 271 542 l 339 542 l 339 610 l 136 610 l 136 678 l 68 678 l 68 813 l 67 813 l 67 949 l 135 949 l 135 1017 l 339 1017 l 339 949 l 407 949 l 407 678 m 339 610 l 406 610 l 406 678 l 339 678 l 339 610 "},"P":{"x_min":67.828125,"x_max":746.046875,"ha":815,"o":"m 203 881 l 203 610 l 542 610 l 542 678 l 610 678 l 610 813 l 542 813 l 542 881 l 203 881 m 203 474 l 203 67 l 67 67 l 67 1017 l 610 1017 l 610 949 l 678 949 l 678 881 l 746 881 l 746 610 l 678 610 l 678 542 l 610 542 l 610 474 l 203 474 "},"À":{"x_min":67.828125,"x_max":746.046875,"ha":815,"o":"m 203 67 l 67 67 l 67 610 l 135 610 l 135 678 l 203 678 l 203 746 l 271 746 l 271 813 l 339 813 l 339 881 l 474 881 l 474 813 l 542 813 l 542 746 l 610 746 l 610 678 l 678 678 l 678 610 l 746 610 l 746 67 l 610 67 l 610 271 l 203 271 l 203 67 m 610 406 l 610 542 l 542 542 l 542 610 l 474 610 l 474 677 l 406 677 l 406 678 l 339 678 l 339 610 l 271 610 l 271 542 l 203 542 l 203 406 l 610 406 m 406 1152 l 406 1085 l 474 1085 l 474 1017 l 542 1017 l 542 949 l 406 949 l 406 1017 l 271 1017 l 271 1085 l 203 1085 l 203 1152 l 406 1152 "},"_":{"x_min":0,"x_max":813.875,"ha":815,"o":"m 0 0 l 0 135 l 813 135 l 813 0 l 0 0 "},"ñ":{"x_min":67.828125,"x_max":746.046875,"ha":815,"o":"m 203 542 l 203 67 l 67 67 l 67 746 l 203 746 l 203 678 l 271 678 l 271 746 l 610 746 l 610 678 l 678 678 l 678 610 l 746 610 l 746 67 l 610 67 l 610 542 l 542 542 l 542 610 l 271 610 l 271 542 l 203 542 m 542 881 l 542 813 l 406 813 l 406 881 l 271 881 l 271 813 l 203 813 l 203 949 l 271 949 l 271 1017 l 406 1017 l 406 949 l 542 949 l 542 1017 l 610 1017 l 610 881 l 542 881 "},"+":{"x_min":67.828125,"x_max":746.046875,"ha":815,"o":"m 339 610 l 339 881 l 474 881 l 474 610 l 746 610 l 746 474 l 474 474 l 474 203 l 339 203 l 339 474 l 67 474 l 67 610 l 339 610 "},"½":{"x_min":67.828125,"x_max":746.046875,"ha":815,"o":"m 135 1017 l 67 1017 l 67 1085 l 135 1085 l 135 1152 l 271 1152 l 271 746 l 339 746 l 339 678 l 67 678 l 67 746 l 135 746 l 135 1017 m 406 406 l 406 474 l 474 474 l 474 542 l 678 542 l 678 474 l 746 474 l 746 339 l 678 339 l 678 271 l 542 271 l 542 135 l 746 135 l 746 67 l 406 67 l 406 271 l 474 271 l 474 339 l 610 339 l 610 474 l 542 474 l 542 406 l 406 406 m 610 1085 l 610 1152 l 678 1152 l 678 1017 l 610 1017 l 610 881 l 542 881 l 542 746 l 474 746 l 474 610 l 406 610 l 406 542 l 339 542 l 339 406 l 271 406 l 271 271 l 203 271 l 203 135 l 135 135 l 135 67 l 67 67 l 67 203 l 135 203 l 135 339 l 203 339 l 203 474 l 271 474 l 271 610 l 339 610 l 339 678 l 406 678 l 406 813 l 474 813 l 474 949 l 542 949 l 542 1017 l 543 1017 l 543 1085 l 610 1085 "},"Æ":{"x_min":67.828125,"x_max":746.046875,"ha":815,"o":"m 406 474 l 406 813 l 339 813 l 339 746 l 271 746 l 271 678 l 203 678 l 203 474 l 406 474 m 542 678 l 746 678 l 746 542 l 542 542 l 542 203 l 746 203 l 746 67 l 406 67 l 406 339 l 203 339 l 203 67 l 67 67 l 67 678 l 135 678 l 135 813 l 203 813 l 203 881 l 271 881 l 271 949 l 339 949 l 339 1017 l 406 1017 l 406 1085 l 746 1085 l 746 949 l 542 949 l 542 678 "},"Ë":{"x_min":67.828125,"x_max":746.046875,"ha":815,"o":"m 203 1017 l 203 1152 l 339 1152 l 339 1017 l 203 1017 m 610 1152 l 610 1017 l 474 1017 l 474 1152 l 610 1152 m 746 881 l 746 746 l 203 746 l 203 542 l 610 542 l 610 406 l 203 406 l 203 203 l 746 203 l 746 67 l 67 67 l 67 881 l 746 881 "},"'":{"x_min":271.296875,"x_max":474.75,"ha":815,"o":"m 474 1017 l 474 813 l 406 813 l 406 746 l 339 746 l 339 813 l 271 813 l 271 1017 l 474 1017 "},"ª":{"x_min":135.640625,"x_max":610.40625,"ha":815,"o":"m 610 406 l 610 271 l 135 271 l 135 406 l 610 406 m 474 542 l 474 746 l 271 746 l 271 678 l 203 678 l 203 610 l 271 610 l 271 542 l 474 542 m 203 949 l 203 1017 l 542 1017 l 542 949 l 610 949 l 610 474 l 542 474 l 542 542 l 474 542 l 474 474 l 203 474 l 203 542 l 135 542 l 135 746 l 203 746 l 203 813 l 474 813 l 474 949 l 271 949 l 271 881 l 135 881 l 135 949 l 203 949 "},"ð":{"x_min":67.828125,"x_max":745.359375,"ha":815,"o":"m 203 271 l 271 271 l 271 203 l 474 203 l 474 271 l 542 271 l 542 610 l 271 610 l 271 542 l 203 542 l 203 271 m 135 203 l 67 203 l 67 610 l 135 610 l 135 678 l 203 678 l 203 746 l 542 746 l 542 813 l 271 813 l 271 949 l 542 949 l 542 1085 l 678 1085 l 678 949 l 745 949 l 745 813 l 678 813 l 678 203 l 610 203 l 610 135 l 542 135 l 542 67 l 203 67 l 203 135 l 135 135 l 135 203 "},"T":{"x_min":67.828125,"x_max":746.046875,"ha":815,"o":"m 339 881 l 67 881 l 67 1017 l 746 1017 l 746 881 l 474 881 l 474 67 l 339 67 l 339 881 "},"Þ":{"x_min":67.828125,"x_max":746.046875,"ha":815,"o":"m 203 271 l 203 67 l 67 67 l 67 1085 l 203 1085 l 203 881 l 610 881 l 610 813 l 678 813 l 678 746 l 746 746 l 746 406 l 678 406 l 678 339 l 610 339 l 610 271 l 203 271 m 203 746 l 203 406 l 542 406 l 542 474 l 610 474 l 610 678 l 542 678 l 542 746 l 203 746 "},"j":{"x_min":203.46875,"x_max":610.40625,"ha":815,"o":"m 610 1085 l 610 949 l 474 949 l 474 1085 l 610 1085 m 610 203 l 542 203 l 542 135 l 474 135 l 474 67 l 203 67 l 203 203 l 406 203 l 406 271 l 474 271 l 474 678 l 339 678 l 339 813 l 610 813 l 610 203 "},"1":{"x_min":203.46875,"x_max":610.40625,"ha":815,"o":"m 474 203 l 610 203 l 610 67 l 203 67 l 203 203 l 339 203 l 339 746 l 203 746 l 203 881 l 271 881 l 271 949 l 339 949 l 339 1017 l 474 1017 l 474 203 "},"›":{"x_min":203.46875,"x_max":542.578125,"ha":815,"o":"m 474 271 l 406 271 l 406 203 l 339 203 l 339 135 l 271 135 l 271 67 l 203 67 l 203 203 l 271 203 l 271 271 l 339 271 l 339 339 l 406 339 l 406 406 l 339 406 l 339 474 l 271 474 l 271 542 l 203 542 l 203 678 l 271 678 l 271 610 l 339 610 l 339 542 l 406 542 l 406 474 l 474 474 l 474 406 l 542 406 l 542 339 l 474 339 l 474 271 "},"→":{"x_min":67.828125,"x_max":746.046875,"ha":815,"o":"m 542 813 l 542 746 l 610 746 l 610 678 l 678 678 l 678 610 l 746 610 l 746 474 l 678 474 l 678 406 l 610 406 l 610 339 l 542 339 l 542 271 l 474 271 l 474 203 l 339 203 l 339 271 l 406 271 l 406 339 l 474 339 l 474 406 l 542 406 l 542 474 l 67 474 l 67 610 l 542 610 l 542 678 l 474 678 l 474 746 l 406 746 l 406 813 l 339 813 l 339 881 l 474 881 l 474 813 l 542 813 "},"ä":{"x_min":67.828125,"x_max":746.046875,"ha":815,"o":"m 203 881 l 203 1017 l 339 1017 l 339 881 l 203 881 m 474 1017 l 610 1017 l 610 881 l 474 881 l 474 1017 m 271 203 l 542 203 l 542 271 l 610 271 l 610 339 l 542 339 l 542 406 l 271 406 l 271 339 l 203 339 l 203 271 l 271 271 l 271 203 m 203 67 l 203 135 l 135 135 l 135 203 l 67 203 l 67 406 l 135 406 l 135 474 l 203 474 l 203 542 l 542 542 l 542 474 l 610 474 l 610 610 l 542 610 l 542 610 l 203 610 l 203 746 l 610 746 l 610 678 l 678 678 l 678 610 l 746 610 l 746 67 l 610 67 l 610 135 l 542 135 l 542 67 l 203 67 "},"<":{"x_min":135.640625,"x_max":678.21875,"ha":815,"o":"m 474 135 l 474 203 l 406 203 l 406 271 l 339 271 l 339 339 l 271 339 l 271 406 l 203 406 l 203 474 l 135 474 l 135 678 l 203 678 l 203 746 l 271 746 l 271 813 l 339 813 l 339 881 l 406 881 l 406 949 l 474 949 l 474 1017 l 542 1017 l 542 1085 l 678 1085 l 678 949 l 610 949 l 610 881 l 542 881 l 542 813 l 474 813 l 474 746 l 406 746 l 406 678 l 339 678 l 339 610 l 271 610 l 271 542 l 339 542 l 339 474 l 406 474 l 406 406 l 474 406 l 474 339 l 542 339 l 542 271 l 610 271 l 610 203 l 678 203 l 678 67 l 542 67 l 542 135 l 474 135 "},"£":{"x_min":67.828125,"x_max":746.046875,"ha":815,"o":"m 271 203 l 746 203 l 746 67 l 67 67 l 67 203 l 135 203 l 135 271 l 203 271 l 203 610 l 67 610 l 67 746 l 203 746 l 203 1017 l 271 1017 l 271 1085 l 339 1085 l 339 1152 l 610 1152 l 610 1085 l 678 1085 l 678 1017 l 746 1017 l 746 881 l 610 881 l 610 949 l 542 949 l 542 1017 l 406 1017 l 406 949 l 339 949 l 339 746 l 610 746 l 610 610 l 339 610 l 339 271 l 271 271 l 271 203 "},"¹":{"x_min":271.296875,"x_max":542.578125,"ha":815,"o":"m 339 1017 l 271 1017 l 271 1085 l 339 1085 l 339 1152 l 474 1152 l 474 746 l 542 746 l 542 678 l 271 678 l 271 746 l 339 746 l 339 1017 "},"t":{"x_min":203.46875,"x_max":610.40625,"ha":815,"o":"m 542 203 l 610 203 l 610 67 l 474 67 l 474 135 l 406 135 l 406 203 l 339 203 l 339 678 l 203 678 l 203 813 l 339 813 l 339 1017 l 474 1017 l 474 813 l 610 813 l 610 678 l 474 678 l 474 271 l 542 271 l 542 203 "},"ù":{"x_min":67.828125,"x_max":746.046875,"ha":815,"o":"m 67 746 l 203 746 l 203 271 l 271 271 l 271 203 l 542 203 l 542 271 l 610 271 l 610 746 l 746 746 l 746 203 l 678 203 l 678 135 l 610 135 l 610 67 l 203 67 l 203 135 l 135 135 l 135 203 l 67 203 l 67 746 m 406 1017 l 406 949 l 474 949 l 474 881 l 542 881 l 542 813 l 406 813 l 406 881 l 271 881 l 271 949 l 203 949 l 203 1017 l 406 1017 "},"W":{"x_min":67.828125,"x_max":746.046875,"ha":815,"o":"m 67 1017 l 203 1017 l 203 271 l 339 271 l 339 610 l 474 610 l 474 271 l 610 271 l 610 1017 l 746 1017 l 746 203 l 678 203 l 678 135 l 610 135 l 610 67 l 474 67 l 474 135 l 339 135 l 339 67 l 203 67 l 203 135 l 135 135 l 135 203 l 67 203 l 67 1017 "},"ï":{"x_min":135.640625,"x_max":610.40625,"ha":815,"o":"m 542 203 l 610 203 l 610 67 l 474 67 l 474 135 l 406 135 l 406 203 l 339 203 l 339 542 l 203 542 l 203 678 l 474 678 l 474 271 l 542 271 l 542 203 m 542 203 l 610 203 l 610 67 l 474 67 l 474 135 l 406 135 l 406 203 l 339 203 l 339 542 l 203 542 l 203 678 l 474 678 l 474 271 l 542 271 l 542 203 m 135 881 l 135 1017 l 271 1017 l 271 881 l 135 881 m 406 1017 l 542 1017 l 542 881 l 406 881 l 406 1017 "},">":{"x_min":135.640625,"x_max":678.21875,"ha":815,"o":"m 271 135 l 271 67 l 135 67 l 135 203 l 203 203 l 203 271 l 271 271 l 271 339 l 339 339 l 339 406 l 406 406 l 406 474 l 474 474 l 474 542 l 542 542 l 542 610 l 474 610 l 474 678 l 406 678 l 406 746 l 339 746 l 339 813 l 271 813 l 271 881 l 203 881 l 203 949 l 135 949 l 135 1085 l 271 1085 l 271 1017 l 339 1017 l 339 949 l 406 949 l 406 881 l 474 881 l 474 813 l 542 813 l 542 746 l 610 746 l 610 678 l 678 678 l 678 474 l 610 474 l 610 406 l 542 406 l 542 339 l 474 339 l 474 271 l 406 271 l 406 203 l 339 203 l 339 135 l 271 135 "},"v":{"x_min":67.828125,"x_max":746.046875,"ha":815,"o":"m 67 813 l 203 813 l 203 406 l 271 406 l 271 339 l 339 339 l 339 271 l 474 271 l 474 339 l 542 339 l 542 406 l 610 406 l 610 813 l 746 813 l 746 339 l 678 339 l 678 271 l 610 271 l 610 203 l 542 203 l 542 135 l 474 135 l 474 67 l 339 67 l 339 135 l 271 135 l 271 203 l 203 203 l 203 271 l 135 271 l 135 339 l 67 339 l 67 813 "},"û":{"x_min":67.828125,"x_max":746.046875,"ha":815,"o":"m 474 1017 l 474 949 l 542 949 l 542 881 l 610 881 l 610 813 l 474 813 l 474 881 l 339 881 l 339 813 l 203 813 l 203 881 l 271 881 l 271 949 l 339 949 l 339 1017 l 474 1017 m 67 746 l 203 746 l 203 271 l 271 271 l 271 203 l 542 203 l 542 271 l 610 271 l 610 746 l 746 746 l 746 203 l 678 203 l 678 135 l 610 135 l 610 67 l 203 67 l 203 135 l 135 135 l 135 203 l 67 203 l 67 746 "},"Ò":{"x_min":67.828125,"x_max":746.046875,"ha":815,"o":"m 406 1152 l 406 1085 l 474 1085 l 474 1017 l 542 1017 l 542 949 l 406 949 l 406 1017 l 271 1017 l 271 1085 l 203 1085 l 203 1152 l 406 1152 m 271 203 l 542 203 l 542 271 l 610 271 l 610 678 l 542 678 l 542 746 l 271 746 l 271 678 l 203 678 l 203 271 l 271 271 l 271 203 m 203 67 l 203 135 l 135 135 l 135 203 l 67 203 l 67 746 l 135 746 l 135 813 l 203 813 l 203 881 l 610 881 l 610 813 l 678 813 l 678 746 l 746 746 l 746 203 l 678 203 l 678 135 l 610 135 l 610 67 l 203 67 "},"&":{"x_min":67.828125,"x_max":746.046875,"ha":815,"o":"m 474 1017 l 271 1017 l 271 746 l 339 746 l 339 678 l 406 678 l 406 746 l 474 746 l 474 1017 m 474 339 l 406 339 l 406 406 l 339 406 l 339 474 l 203 474 l 203 271 l 271 271 l 271 203 l 474 203 l 474 339 m 474 474 l 542 474 l 542 406 l 610 406 l 610 474 l 746 474 l 746 339 l 678 339 l 678 203 l 746 203 l 746 67 l 610 67 l 610 135 l 542 135 l 542 67 l 203 67 l 203 135 l 135 135 l 135 203 l 67 203 l 67 542 l 135 542 l 135 610 l 203 610 l 203 746 l 135 746 l 135 1017 l 203 1017 l 203 1085 l 271 1085 l 271 1152 l 474 1152 l 474 1085 l 542 1085 l 542 1017 l 610 1017 l 610 746 l 542 746 l 542 610 l 474 610 l 474 474 "},"Ð":{"x_min":67.828125,"x_max":746.046875,"ha":815,"o":"m 135 610 l 135 1018 l 609 1018 l 609 950 l 678 950 l 678 882 l 746 882 l 746 204 l 678 204 l 678 136 l 610 136 l 610 67 l 474 67 l 474 68 l 135 68 l 135 474 l 67 474 l 67 610 l 135 610 m 271 610 l 406 610 l 406 474 l 271 474 l 271 203 l 474 203 l 474 202 l 542 202 l 542 271 l 610 271 l 610 813 l 542 813 l 542 881 l 271 881 l 271 610 "},"I":{"x_min":203.46875,"x_max":610.40625,"ha":815,"o":"m 203 67 l 203 203 l 339 203 l 339 881 l 203 881 l 203 1017 l 610 1017 l 610 881 l 474 881 l 474 203 l 610 203 l 610 67 l 203 67 "},"G":{"x_min":67.828125,"x_max":746.71875,"ha":815,"o":"m 678 881 l 746 881 l 746 746 l 611 746 l 611 813 l 543 813 l 543 881 l 271 881 l 271 813 l 203 813 l 203 746 l 204 746 l 204 610 l 204 610 l 204 339 l 203 339 l 203 271 l 271 271 l 271 203 l 475 203 l 475 202 l 543 202 l 543 271 l 611 271 l 611 474 l 407 474 l 407 610 l 746 610 l 746 203 l 678 203 l 678 135 l 611 135 l 611 67 l 475 67 l 475 67 l 204 67 l 204 135 l 136 135 l 136 203 l 67 203 l 67 339 l 68 339 l 68 610 l 69 610 l 69 746 l 67 746 l 67 881 l 136 881 l 136 949 l 204 949 l 204 1017 l 611 1017 l 611 949 l 678 949 l 678 881 "},"`":{"x_min":203.46875,"x_max":542.578125,"ha":815,"o":"m 406 1017 l 406 949 l 474 949 l 474 881 l 542 881 l 542 813 l 406 813 l 406 881 l 270 881 l 270 949 l 203 949 l 203 1017 l 406 1017 "},"r":{"x_min":67.828125,"x_max":746.046875,"ha":815,"o":"m 203 474 l 203 67 l 67 67 l 67 813 l 203 813 l 203 678 l 271 678 l 271 746 l 339 746 l 339 813 l 610 813 l 610 746 l 678 746 l 678 678 l 746 678 l 746 542 l 610 542 l 610 610 l 542 610 l 542 678 l 406 678 l 406 610 l 339 610 l 339 542 l 271 542 l 271 474 l 203 474 "},"¿":{"x_min":67.828125,"x_max":746.71875,"ha":815,"o":"m 339 881 l 339 1017 l 475 1017 l 475 881 l 339 881 m 339 542 l 339 474 l 271 474 l 271 406 l 204 406 l 204 339 l 203 339 l 203 271 l 271 271 l 271 203 l 543 203 l 543 271 l 611 271 l 611 339 l 746 339 l 746 203 l 678 203 l 678 135 l 611 135 l 611 67 l 204 67 l 204 135 l 136 135 l 136 203 l 67 203 l 67 339 l 68 339 l 68 474 l 136 474 l 136 542 l 204 542 l 204 610 l 271 610 l 271 678 l 339 678 l 339 746 l 475 746 l 475 610 l 407 610 l 407 542 l 339 542 "},"ý":{"x_min":67.828125,"x_max":746.046875,"ha":815,"o":"m 203 67 l 203 203 l 542 203 l 542 271 l 610 271 l 610 474 l 542 474 l 542 406 l 474 406 l 474 339 l 203 339 l 203 406 l 135 406 l 135 474 l 67 474 l 67 746 l 203 746 l 203 542 l 271 542 l 271 474 l 406 474 l 406 542 l 474 542 l 474 610 l 542 610 l 542 678 l 610 678 l 610 746 l 746 746 l 746 203 l 678 203 l 678 135 l 610 135 l 610 67 l 203 67 m 406 949 l 406 1017 l 610 1017 l 610 949 l 542 949 l 542 881 l 406 881 l 406 813 l 271 813 l 271 881 l 339 881 l 339 949 l 406 949 "},"x":{"x_min":67.828125,"x_max":746.046875,"ha":815,"o":"m 203 135 l 203 67 l 67 67 l 67 203 l 135 203 l 135 271 l 203 271 l 203 339 l 271 339 l 271 406 l 339 406 l 339 474 l 271 474 l 271 542 l 203 542 l 203 610 l 135 610 l 135 678 l 67 678 l 67 813 l 203 813 l 203 746 l 271 746 l 271 678 l 339 678 l 339 610 l 474 610 l 474 678 l 542 678 l 542 746 l 610 746 l 610 813 l 746 813 l 746 678 l 678 678 l 678 610 l 610 610 l 610 542 l 542 542 l 542 474 l 474 474 l 474 406 l 542 406 l 542 339 l 610 339 l 610 271 l 678 271 l 678 203 l 746 203 l 746 67 l 610 67 l 610 135 l 542 135 l 542 203 l 474 203 l 474 271 l 339 271 l 339 203 l 271 203 l 271 135 l 203 135 "},"è":{"x_min":67.828125,"x_max":746.046875,"ha":815,"o":"m 406 1017 l 406 949 l 474 949 l 474 881 l 542 881 l 542 813 l 406 813 l 406 881 l 271 881 l 271 949 l 203 949 l 203 1017 l 406 1017 m 746 271 l 746 203 l 678 203 l 678 135 l 610 135 l 610 67 l 203 67 l 203 135 l 135 135 l 135 203 l 67 203 l 67 610 l 135 610 l 135 678 l 203 678 l 203 746 l 610 746 l 610 678 l 678 678 l 678 610 l 746 610 l 746 406 l 678 406 l 678 339 l 203 339 l 203 271 l 271 271 l 271 203 l 542 203 l 542 271 l 746 271 m 203 474 l 610 474 l 610 542 l 542 542 l 542 610 l 271 610 l 271 542 l 203 542 l 203 474 "},"º":{"x_min":135.640625,"x_max":610.40625,"ha":815,"o":"m 610 406 l 610 271 l 135 271 l 135 406 l 610 406 m 271 881 l 271 610 l 474 610 l 474 881 l 271 881 m 271 949 l 271 1017 l 474 1017 l 474 949 l 542 949 l 542 881 l 610 881 l 610 610 l 542 610 l 542 542 l 474 542 l 474 474 l 271 474 l 271 542 l 203 542 l 203 610 l 135 610 l 135 881 l 203 881 l 203 949 l 271 949 "},"Ø":{"x_min":67.828125,"x_max":746.046875,"ha":815,"o":"m 339 203 l 542 203 l 542 271 l 610 271 l 610 746 l 542 746 l 542 610 l 474 610 l 474 609 l 475 609 l 475 541 l 474 541 l 474 474 l 406 474 l 406 339 l 339 339 l 339 203 m 474 881 l 271 881 l 271 813 l 203 813 l 203 339 l 271 339 l 271 474 l 339 474 l 339 610 l 406 610 l 406 746 l 474 746 l 474 881 m 271 67 l 271 135 l 203 135 l 203 67 l 67 67 l 67 203 l 135 203 l 135 271 l 67 271 l 67 881 l 135 881 l 135 949 l 203 949 l 203 1017 l 542 1017 l 542 949 l 610 949 l 610 1017 l 746 1017 l 746 881 l 678 881 l 678 813 l 746 813 l 746 203 l 678 203 l 678 135 l 610 135 l 610 67 l 271 67 "},"h":{"x_min":67.828125,"x_max":746.046875,"ha":815,"o":"m 203 474 l 203 67 l 67 67 l 67 1017 l 203 1017 l 203 678 l 271 678 l 271 746 l 339 746 l 339 813 l 542 813 l 542 746 l 610 746 l 610 678 l 678 678 l 678 610 l 746 610 l 746 67 l 610 67 l 610 542 l 542 542 l 542 610 l 474 610 l 474 678 l 406 678 l 406 610 l 339 610 l 339 542 l 271 542 l 271 474 l 203 474 "},".":{"x_min":271.296875,"x_max":406.9375,"ha":815,"o":"m 406 203 l 406 67 l 271 67 l 271 203 l 406 203 "},";":{"x_min":135.640625,"x_max":406.9375,"ha":815,"o":"m 406 881 l 406 746 l 271 746 l 271 881 l 406 881 m 271 203 l 271 339 l 406 339 l 406 203 l 339 203 l 339 135 l 271 135 l 271 67 l 135 67 l 135 135 l 203 135 l 203 203 l 271 203 "},"f":{"x_min":135.640625,"x_max":678.21875,"ha":815,"o":"m 474 67 l 339 67 l 339 678 l 135 678 l 135 813 l 339 813 l 339 949 l 406 949 l 406 1017 l 678 1017 l 678 881 l 474 881 l 474 813 l 678 813 l 678 678 l 474 678 l 474 67 "},"“":{"x_min":135.640625,"x_max":678.21875,"ha":815,"o":"m 339 1017 l 339 949 l 271 949 l 271 1017 l 339 1017 m 610 813 l 678 813 l 678 610 l 474 610 l 474 881 l 542 881 l 542 949 l 610 949 l 610 813 m 271 813 l 339 813 l 339 610 l 135 610 l 135 881 l 203 881 l 203 949 l 271 949 l 271 813 m 678 1017 l 678 949 l 610 949 l 610 1017 l 678 1017 "},"A":{"x_min":67.828125,"x_max":746.046875,"ha":815,"o":"m 203 474 l 610 474 l 610 678 l 542 678 l 542 746 l 474 746 l 474 813 l 339 813 l 339 746 l 271 746 l 271 678 l 203 678 l 203 474 m 203 67 l 67 67 l 67 746 l 135 746 l 135 813 l 203 813 l 203 881 l 271 881 l 271 949 l 339 949 l 339 1017 l 474 1017 l 474 949 l 542 949 l 542 881 l 610 881 l 610 813 l 678 813 l 678 746 l 746 746 l 746 67 l 610 67 l 610 339 l 203 339 l 203 67 "},"6":{"x_min":67.828125,"x_max":746.046875,"ha":815,"o":"m 610 135 l 610 67 l 203 67 l 203 135 l 135 135 l 135 203 l 67 203 l 67 881 l 135 881 l 135 949 l 203 949 l 203 1017 l 610 1017 l 610 948 l 678 948 l 678 881 l 746 881 l 746 746 l 610 746 l 610 813 l 542 813 l 542 881 l 271 881 l 271 813 l 203 813 l 203 610 l 610 610 l 610 542 l 678 542 l 678 474 l 746 474 l 746 203 l 678 203 l 678 135 l 610 135 m 271 203 l 542 203 l 542 271 l 610 271 l 610 406 l 542 406 l 542 474 l 203 474 l 203 271 l 271 271 l 271 203 "},"‘":{"x_min":406.9375,"x_max":610.40625,"ha":815,"o":"m 610 1017 l 610 949 l 542 949 l 542 1017 l 610 1017 m 542 813 l 610 813 l 610 610 l 406 610 l 406 881 l 474 881 l 474 949 l 542 949 l 542 813 "},"O":{"x_min":67.828125,"x_max":746.046875,"ha":815,"o":"m 542 881 l 271 881 l 271 813 l 203 813 l 203 271 l 271 271 l 271 203 l 543 203 l 543 270 l 610 270 l 610 813 l 542 813 l 542 881 m 203 949 l 203 1017 l 610 1017 l 610 949 l 678 949 l 678 881 l 746 881 l 746 203 l 678 203 l 678 134 l 610 134 l 610 67 l 203 67 l 203 135 l 135 135 l 135 203 l 67 203 l 67 881 l 135 881 l 135 949 l 203 949 "},"n":{"x_min":67.828125,"x_max":746.046875,"ha":815,"o":"m 203 610 l 203 67 l 67 67 l 67 813 l 203 813 l 203 746 l 271 746 l 271 813 l 610 813 l 610 746 l 678 746 l 678 678 l 746 678 l 746 67 l 610 67 l 610 610 l 542 610 l 542 678 l 271 678 l 271 610 l 203 610 "},"3":{"x_min":67.828125,"x_max":746.046875,"ha":815,"o":"m 134 203 l 67 203 l 67 339 l 203 339 l 203 271 l 270 271 l 270 203 l 542 203 l 542 271 l 610 271 l 610 406 l 542 406 l 542 474 l 339 474 l 339 610 l 542 610 l 542 678 l 610 678 l 610 813 l 542 813 l 542 881 l 271 881 l 271 813 l 203 813 l 203 746 l 67 746 l 67 881 l 135 881 l 135 949 l 203 949 l 203 1017 l 610 1017 l 610 949 l 678 949 l 678 881 l 746 881 l 746 610 l 678 610 l 678 474 l 746 474 l 746 203 l 678 203 l 678 135 l 610 135 l 610 67 l 203 67 l 203 135 l 134 135 l 134 203 "},"9":{"x_min":67.828125,"x_max":746.046875,"ha":815,"o":"m 135 203 l 67 203 l 67 339 l 203 339 l 203 271 l 271 271 l 271 203 l 542 203 l 542 271 l 610 271 l 610 474 l 203 474 l 203 541 l 135 541 l 135 610 l 67 610 l 67 881 l 135 881 l 135 949 l 203 949 l 203 1017 l 610 1017 l 610 949 l 678 949 l 678 881 l 746 881 l 746 203 l 678 203 l 678 135 l 610 135 l 610 67 l 203 67 l 203 135 l 135 135 l 135 203 m 610 610 l 610 813 l 542 813 l 542 881 l 271 881 l 271 813 l 203 813 l 203 677 l 271 677 l 271 610 l 610 610 "},"l":{"x_min":339.109375,"x_max":474.75,"ha":815,"o":"m 474 1017 l 474 67 l 339 67 l 339 1017 l 474 1017 "},"4":{"x_min":67.828125,"x_max":746.046875,"ha":815,"o":"m 474 949 l 474 1017 l 610 1017 l 610 474 l 746 474 l 746 339 l 610 339 l 610 67 l 474 67 l 474 339 l 67 339 l 67 610 l 135 610 l 135 678 l 203 678 l 203 746 l 271 746 l 271 813 l 339 813 l 339 881 l 406 881 l 406 949 l 474 949 m 474 474 l 474 746 l 406 746 l 406 678 l 339 678 l 339 610 l 271 610 l 271 542 l 203 542 l 203 474 l 474 474 "},"p":{"x_min":67.828125,"x_max":746.046875,"ha":815,"o":"m 610 678 l 542 678 l 542 746 l 339 746 l 339 678 l 271 678 l 271 474 l 339 474 l 339 406 l 542 406 l 542 474 l 610 474 l 610 678 m 203 339 l 203 67 l 67 67 l 67 881 l 203 881 l 203 813 l 271 813 l 271 881 l 610 881 l 610 813 l 678 813 l 678 746 l 746 746 l 746 406 l 678 406 l 678 339 l 610 339 l 610 271 l 271 271 l 271 339 l 203 339 "},"à":{"x_min":67.828125,"x_max":746.046875,"ha":815,"o":"m 271 203 l 542 203 l 542 271 l 610 271 l 610 339 l 542 339 l 542 406 l 271 406 l 271 339 l 203 339 l 203 271 l 271 271 l 271 203 m 203 67 l 203 135 l 135 135 l 135 203 l 67 203 l 67 406 l 135 406 l 135 474 l 203 474 l 203 542 l 542 542 l 542 474 l 610 474 l 610 610 l 542 610 l 542 610 l 203 610 l 203 746 l 610 746 l 610 678 l 678 678 l 678 610 l 746 610 l 746 67 l 610 67 l 610 135 l 542 135 l 542 67 l 203 67 m 406 1017 l 406 949 l 474 949 l 474 881 l 542 881 l 542 813 l 406 813 l 406 881 l 271 881 l 271 949 l 203 949 l 203 1017 l 406 1017 "},"Ü":{"x_min":67.828125,"x_max":746.046875,"ha":815,"o":"m 135 203 l 67 203 l 67 881 l 203 881 l 203 271 l 271 271 l 271 203 l 542 203 l 542 271 l 610 271 l 610 881 l 746 881 l 746 203 l 678 203 l 678 135 l 610 135 l 610 67 l 203 67 l 203 135 l 135 135 l 135 203 m 203 1017 l 203 1152 l 339 1152 l 339 1017 l 203 1017 m 474 1152 l 610 1152 l 610 1017 l 474 1017 l 474 1152 "},"ó":{"x_min":67.828125,"x_max":746.046875,"ha":815,"o":"m 610 1017 l 610 949 l 542 949 l 542 881 l 406 881 l 406 813 l 271 813 l 271 881 l 339 881 l 339 949 l 406 949 l 406 1017 l 610 1017 m 271 203 l 542 203 l 542 271 l 610 271 l 610 542 l 542 542 l 542 610 l 271 610 l 271 542 l 203 542 l 203 271 l 271 271 l 271 203 m 203 67 l 203 135 l 135 135 l 135 203 l 67 203 l 67 610 l 135 610 l 135 678 l 203 678 l 203 746 l 610 746 l 610 678 l 678 678 l 678 610 l 746 610 l 746 203 l 678 203 l 678 135 l 610 135 l 610 67 l 203 67 "}}}
